<?xml version="1.0" encoding="UTF-8"?>
<svg id="Capa_2" xmlns="http://www.w3.org/2000/svg" viewBox="0 0 663.69 132.65">
  <defs>
    <style>
      .cls-1 {
        fill: #dfd8ce;
      }
    </style>
  </defs>
  <g id="Capa_1-2" data-name="Capa_1">
    <path class="cls-1" d="M59.55,90.2c-1.2-1.25-2.38-2.52-3.59-3.76-1.49-1.53-3-3.05-4.5-4.56-.67-.67-1.29-1.43-2.07-1.96-1.28-.88-2.29-1.72-1.98-3.56.09-.52-.73-1.36-1.33-1.76-.39-.26-1.13,0-1.95.05-.04-.09-.1-.59-.36-.74-2.24-1.28-2.58-3.48-2.95-5.73-.12-.72-.23-1.23.27-1.92.95-1.31.14-2.81-1.52-2.97-.71-.07-1.44-.04-2.15-.05-5.9-.1-11.8-.13-17.7-.31-4.04-.12-8.08-.43-12.11-.66-.32-.02-.68.04-.94-.1-.39-.2-.96-.53-.97-.83-.02-.42.4-.86.74-1.46-.4-.35-.94-.83-1.46-1.28.2-.17.37-.31.8-.67-1.67-.2-3.05-.37-4.58-.56.47-1.24,1.75-1.12,2.73-1.61-1.04-1.28-2.46-.53-3.9-1.01,1.12-.9,2.08-1.74,3.12-2.48,1.09-.77,1.12-.73,1.16-2.23,2.86-.69,5.74-1.61,8.7-2.04,3.23-.47,6.26-1.68,9.44-2.22,3.36-.57,6.64-1.65,10.1-1.58.16,0,.36.05.46-.02,2.74-2.08,6.17-1.9,9.27-2.62,7.31-1.69,14.38-4.04,21.38-6.69,2.75-1.04,5.65-1.7,8.44-2.66,2.17-.74,4.26-1.7,6.41-2.5,1.34-.49,2.76-.76,4.09-1.29,2.34-.94,5.26-.56,6.95-3.07.18-.27,1.13-.26,1.57-.05,1.07.51,1.94.21,2.96-.15,1.5-.51,2.95-1.7,4.72-.69.19.11.6-.16.91-.23,1.12-.25,2.11-.79,3.44-.23.72.31,1.94-.47,2.9-.83,1.26-.48,2.52-.98,3.72-1.59.63-.32,1.13-.9,1.56-1.25-.27-1.19-2.05.28-1.61-1.33,4.71-3.73,10.64-4.49,15.95-6.72,4.24-1.78,8.76-2.9,13.19-4.2,1.33-.39,2.78-.4,4.16-.65.51-.09.98-.41,1.49-.55,6.09-1.61,12.17-3.28,18.28-4.78,3.16-.77,6.4-1.26,9.6-1.84,1.81-.33,3.58-.49,5.3.55,1.12.68,2.32.22,3.5-.43,1.47,1.31,3.04,1.51,4.91.49.68-.37,1.93-.87,2.69.62.27.52,1.58.59,2.43.72,2.56.38,5.14.23,7.71,1.08,2.06.69,4.42.49,6.64.61,1.07.06,1.92.01,2.96.86,1.05.85,2.9.71,4.51.58-.23-.13-.46-.26-1.02-.57.95.22,1.56.34,2.15.51,7.55,2.18,14.75,4.99,20.68,10.44,2.57,2.37,5.48,4.37,8.16,6.62,2.28,1.91,4.64,3.77,6.62,5.95,1.57,1.73,2.6,3.95,3.93,5.9.56.82,1.02,1.83,2.32,1.83.31,0,.78.4.88.71.52,1.64,2.51,2.4,2.57,4.33,0,.33.36.82.67.94,2.15.89,2.78,3.15,4.27,4.64,1.46,1.46,2.74,3.1,4.06,4.71,2.31,2.82,4.62,5.64,6.86,8.51.57.72.95,1.61,1.32,2.47,1.19,2.76,2.55,5.48,3.45,8.33.97,3.08.39,6.14-1.19,8.98-.56,1.02-1.16,1.56-2.2.51-.14-.14-.51-.14-.75-.1-.63.1-1.24.28-1.86.4-.42.08-1.06-1.23-1.28.2-.42-.17-.92-.57-1.23-.46-.61.23-1.11.75-1.9,1.32-2.75-1.87-5.67-3.86-8.91-6.06-.39.47-.83,1.01-1.48,1.78-.11-1.22-.19-2.14-.29-3.35q-1.23,1.5-.44,6.79c-1.52,1.72-3.08,3.45-4.58,5.23-.29.34-.36.87-.57,1.29-.22.42-.4.97-.76,1.17-1.98,1.12-3.43,2.87-5.08,4.34-2.96,2.64-6,5.12-9.46,7.1-.91.52-1.55,1.53-2.32,2.3-.65.65-1.21,1.45-1.97,1.91-1.77,1.06-3.62,2-5.47,2.91-1.42.7-2.87,1.33-4.33,1.93-1.08.44-2.14.81-3.09,1.61-.88.75-2.09,1.12-3.15,1.64-3.47,1.72-6.89,3.58-10.45,5.09-1.93.82-3.36,2.3-5.19,3.2-3.57,1.77-7.2,3.51-11.15,3.97-2.71.32-4.98,1.68-7.53,2.25-3.41.76-6.84,1.42-10.27,2.13-.96.2-1.91.41-2.87.61-.05-.19-.11-.37-.16-.56.35-.16.71-.31,1.09-.48-.09-.06-.18-.17-.28-.18-6.5-.26-13-.53-19.5-.74-3.34-.11-6.71.11-10.02-.26-3.78-.43-7.53-1.25-11.25-2.08-3.48-.78-6.91-1.81-10.37-2.71-.4-.1-.84-.05-1.33.38,1.03.24,2.07.47,3.1.71.58.14,1.09.35.88,1.12l.05-.03c-2.23-.5-4.45-1.01-6.68-1.51,0-.11.02-.22.02-.34.5-.17.99-.33,2.04-.68-1.88-.71-3.32-1.23-4.75-1.8-2.79-1.12-5.56-2.3-8.37-3.38-1.23-.47-2.54-.76-3.82-1.13l.09.04c-.43-.44-.79-1.01-1.31-1.3-3.84-2.16-7.7-4.27-11.57-6.36-.31-.17-.76-.05-1.15-.07-.78-1.58-2.38-1.8-3.82-2.29l.07.07c-.34-.4-.6-.92-1.03-1.18-2.02-1.25-4.06-2.46-6.13-3.61-.53-.3-1.2-.34-1.8-.5l.08.06c-.73-1.32-1.99-1.8-3.34-2.14l.09.08c-.82-.73-1.58-1.55-2.49-2.16-1.64-1.09-3.36-2.05-5.05-3.06l.09.07c-1-1.47-2.3-2.56-4.01-3.12h0ZM51.01,62.64c2.78,2.29,5.23,4.32,7.71,6.32,1.46,1.18,3.16,2.07,4.11,3.84.26.48.95.76,1.48,1.04.66.34,1.47.46,2.04.9,3.14,2.41,6.21,4.9,9.33,7.32.49.38,1.12.65,1.73.77,1.85.39,3.4,1.3,4.82,2.5.24.2.47.46.75.58,2.42.98,4.78,2.04,6.48,4.16.22.27.69.44,1.07.48,2.99.33,5.13,2.51,7.78,3.57.26.1.62.4.63.63.12,1.58,1.17,1.37,2.3,1.47,1.19.1,2.49.31,2.97,1.88.16.52,1.39,1.27,1.55,1.15,1.38-1.04,2.04,1.11,3.25.64.15-.06.69.33.7.53.15,1.8,1.35,1.57,2.57,1.47.42-.03.97.15,1.29.43,1.1.96,2.93.93,3.52,2.62.07.21.67.27,1.04.33.75.11,1.53.08,2.26.25,1.85.44,3.7.89,5.52,1.46,1.37.42,2.88.67,3.64,2.18.11.21.54.28.84.37,1.67.49,3.33,1.04,5.03,1.42.59.13,1.28-.18,1.95-.29-.25-2.33-.43-4.39-.71-6.44-.42-3.04-1.42-6.09-1.25-9.08.26-4.5.17-9.07,1.55-13.49,1.11-3.58,1.95-7.27,4.33-10.27,1.43-1.8,3.09-3.42,4.69-5.08,1.45-1.51,3.05-2.78,5.2-3.23.76-.16,1.44-.65,2.17-.98,1-.47,1.99-.97,3.01-1.39,2.75-1.13,5.67-1.39,8.6-1.48,2.06-.07,4.14-.17,6.19.02,1.47.14,2.9,1.05,4.35,1.05,3.15.01,5.66,1.89,8.57,2.52,5.01,3.38,10.18,6.56,14.99,10.2,2.89,2.19,4.8,5.32,4.63,9.28-.03.61.24,1.24.42,1.84.67,2.29,1.35,4.58,1.24,7.02-.05,1.1,0,2.21.13,3.3.12,1.02.5,2.01.58,3.03.08.98-.07,1.97-.12,2.96-.05,1.06-.12,2.12-.11,3.18,0,.25.31.5.52.81,5.54-2.17,11.01-4.28,16.45-6.48,1.76-.71,3.46-1.61,5.14-2.51,3.99-2.13,7.98-4.26,11.9-6.51,2.34-1.34,4.56-2.9,6.11-5.23.25-.38.65-.72,1.06-.93,1.64-.83,2.68-2.64,4.72-2.85.24-.02.43-.58.58-.8-.33-.48-.57-.83-.8-1.17,1.87-1.71,3.6-3.3,5.38-4.94-.2-.16-.54-.5-.94-.73-3.42-2.04-6.96-3.89-10.24-6.13-3.34-2.29-6.41-4.96-9.61-7.45-1.19-.93-2.34-1.93-3.61-2.72-2.76-1.72-5.61-3.31-8.4-5-3.96-2.39-7.92-4.78-11.83-7.24-2.96-1.86-6.18-3.01-9.58-3.56-3.93-.63-7.9-1.05-11.87-1.44-2.54-.25-5.09-.31-7.64-.44-2.31-.12-4.68.06-6.92-.39-1.99-.41-3.92-.66-5.88-.28-5.86,1.15-11.73,2.32-17.56,3.61-7.47,1.64-14.91,3.4-22.37,5.09-1.78.4-3.61.63-5.37,1.11-3.58.98-7.08,2.25-10.69,3.09-4.16.97-8.4,1.56-12.6,2.37-7.98,1.53-15.73,4.07-23.8,5.26-6.06.9-12.04,2.36-18.07,3.43-2.79.5-5.64.68-8.92,1.06ZM117.6,17.82c.05.18.11.36.16.55,3.3-1.13,6.6-2.26,9.9-3.39-3.41.8-7.06.8-10.06,2.85ZM200.23,5.61c-.01.08-.03.16-.04.23.83.21,1.65.49,2.49.62.76.12,1.54.09,2.31.13,0-.07,0-.14,0-.21-1.59-.26-3.18-.52-4.76-.77ZM129.99,14.5c1.21-.49,2-.81,3.03-1.22-.93-.37-1.54-.61-2.04-.8-.3.62-.55,1.14-.99,2.02ZM210.4,7.35c-.03.14-.07.29-.1.43,1.13.24,2.26.49,3.39.72.13.03.29-.07.9-.24-1.67-.36-2.93-.64-4.19-.91ZM248.21,90.82c-.1-.13-.2-.26-.3-.4-.41.24-.84.47-1.23.75-.06.04.09.36.21.81.53-.48.92-.82,1.31-1.17ZM150.41,8.01l.07.5c.58-.17,1.16-.35,1.74-.52-.03-.11-.06-.22-.09-.34-.57.12-1.15.24-1.72.36ZM138.42,11.71c-.02-.17-.04-.34-.07-.51-.72.18-1.45.36-2.17.54.03.15.07.29.1.44.71-.15,1.43-.31,2.14-.46ZM194.96,4.89c-.01.1-.02.2-.04.31.76.04,1.52.07,2.27.11,0-.1,0-.2.01-.31l-2.25-.1ZM171.87,2.64c0-.13,0-.25,0-.38-.58.01-1.17.02-1.75.04,0,.13,0,.25,0,.38.58-.01,1.17-.02,1.75-.04Z"/>
    <path class="cls-1" d="M604.34,92.87c-1.71.57-2.99,1.67-3.99,3.15l.09-.07c-1.68,1.02-3.4,1.99-5.04,3.09-.9.61-1.66,1.44-2.48,2.17l.09-.08c-1.35.35-2.61.84-3.33,2.16l.08-.06c-.6.16-1.27.22-1.8.51-2.06,1.17-4.1,2.38-6.11,3.64-.42.26-.68.78-1.02,1.19l.07-.07c-1.44.49-3.03.73-3.8,2.31-.39.02-.84-.09-1.15.08-3.86,2.11-7.71,4.25-11.54,6.43-.51.29-.87.86-1.3,1.31l.09-.04c-1.27.38-2.58.67-3.81,1.15-2.8,1.09-5.57,2.29-8.35,3.42-1.42.58-2.86,1.11-4.74,1.83,1.05.35,1.55.51,2.05.67,0,.11.02.22.03.34-2.22.52-4.45,1.03-6.67,1.55l.05.02c-.22-.77.29-.98.87-1.12,1.03-.25,2.07-.49,3.1-.73-.49-.42-.93-.47-1.33-.37-3.45.92-6.87,1.97-10.35,2.77-3.72.86-7.46,1.7-11.24,2.15-3.31.39-6.68.19-10.02.32-6.5.26-12.99.56-19.49.86-.09,0-.18.11-.28.18.38.17.74.32,1.09.47-.05.19-.1.37-.16.56-.96-.2-1.91-.4-2.87-.6-3.43-.69-6.86-1.34-10.28-2.07-2.56-.55-4.83-1.9-7.55-2.21-3.95-.44-7.6-2.16-11.18-3.91-1.84-.9-3.27-2.36-5.21-3.17-3.57-1.49-6.99-3.33-10.48-5.03-1.07-.52-2.27-.89-3.16-1.63-.95-.79-2.01-1.15-3.1-1.59-1.47-.59-2.92-1.21-4.34-1.91-1.86-.91-3.71-1.83-5.49-2.88-.77-.45-1.33-1.25-1.99-1.9-.78-.77-1.42-1.77-2.34-2.29-3.47-1.96-6.52-4.42-9.5-7.04-1.66-1.47-3.12-3.2-5.11-4.31-.36-.2-.55-.75-.76-1.17-.22-.42-.29-.95-.58-1.29-1.52-1.77-3.09-3.49-4.61-5.2q.76-5.3-.48-6.79c-.1,1.22-.17,2.13-.28,3.35-.65-.77-1.09-1.3-1.49-1.77-3.22,2.22-6.14,4.23-8.87,6.11-.78-.57-1.29-1.08-1.9-1.31-.31-.12-.82.29-1.23.46-.23-1.43-.86-.11-1.29-.19-.62-.12-1.24-.29-1.86-.38-.24-.04-.61-.04-.75.11-1.03,1.06-1.63.52-2.2-.5-1.59-2.84-2.19-5.89-1.24-8.98.89-2.86,2.23-5.58,3.41-8.35.36-.86.74-1.75,1.3-2.47,2.23-2.88,4.52-5.72,6.81-8.55,1.31-1.61,2.58-3.26,4.03-4.73,1.48-1.5,2.1-3.76,4.25-4.66.31-.13.65-.62.66-.95.05-1.93,2.03-2.7,2.54-4.34.1-.31.57-.72.88-.72,1.29-.01,1.75-1.02,2.3-1.85,1.32-1.96,2.34-4.19,3.9-5.92,1.97-2.2,4.32-4.07,6.59-5.99,2.67-2.26,5.56-4.29,8.12-6.67,5.9-5.48,13.09-8.33,20.62-10.56.59-.18,1.2-.29,2.15-.52-.55.31-.78.45-1.02.58,1.61.12,3.46.25,4.51-.6,1.04-.85,1.88-.81,2.95-.87,2.23-.13,4.59.05,6.64-.65,2.56-.87,5.14-.73,7.7-1.13.85-.13,2.16-.21,2.43-.73.75-1.49,2.01-1,2.69-.63,1.88,1.01,3.45.8,4.91-.52,1.18.65,2.38,1.1,3.5.41,1.72-1.05,3.49-.9,5.3-.58,3.21.56,6.45,1.03,9.61,1.79,6.13,1.46,12.21,3.1,18.31,4.68.51.13.98.45,1.49.54,1.38.24,2.83.24,4.16.62,4.44,1.28,8.97,2.37,13.22,4.12,5.32,2.2,11.26,2.92,15.99,6.63.45,1.61-1.33.15-1.6,1.34.43.35.93.92,1.56,1.24,1.2.6,2.47,1.1,3.73,1.57.97.36,2.19,1.13,2.91.82,1.32-.57,2.31-.03,3.44.21.31.07.71.34.91.22,1.76-1.02,3.22.16,4.72.67,1.03.35,1.9.64,2.96.13.44-.21,1.39-.22,1.57.04,1.71,2.5,4.62,2.11,6.97,3.03,1.33.52,2.75.78,4.09,1.27,2.16.78,4.25,1.73,6.43,2.46,2.8.94,5.7,1.58,8.46,2.61,7.02,2.61,14.1,4.92,21.42,6.57,3.11.7,6.53.5,9.28,2.57.1.08.31.03.46.02,3.46-.09,6.75.97,10.11,1.52,3.19.52,6.22,1.71,9.45,2.16,2.96.41,5.85,1.31,8.71,1.99.05,1.51.08,1.46,1.17,2.23,1.04.73,2,1.57,3.13,2.46-1.44.48-2.86-.26-3.9,1.03.98.49,2.25.36,2.74,1.6-1.54.2-2.91.37-4.58.59.43.36.6.5.81.67-.52.46-1.05.94-1.45,1.29.34.61.76,1.04.75,1.46-.01.3-.59.63-.97.84-.26.14-.63.08-.94.1-4.04.25-8.07.58-12.11.73-5.9.21-11.8.28-17.7.41-.72.02-1.44,0-2.15.06-1.66.17-2.47,1.67-1.51,2.98.51.69.4,1.2.28,1.92-.35,2.25-.68,4.45-2.91,5.74-.26.15-.31.66-.35.74-.83-.04-1.57-.3-1.95-.04-.6.41-1.41,1.25-1.32,1.77.32,1.84-.68,2.69-1.96,3.57-.77.54-1.39,1.3-2.06,1.98-1.5,1.52-3,3.05-4.48,4.58-1.2,1.25-2.38,2.52-3.57,3.78h0ZM603.8,64.25c-6.04-1.04-12.03-2.46-18.09-3.33-8.08-1.15-15.84-3.64-23.83-5.13-4.2-.78-8.45-1.35-12.62-2.3-3.61-.82-7.12-2.07-10.7-3.03-1.76-.47-3.59-.69-5.38-1.08-7.47-1.65-14.92-3.36-22.4-4.96-5.84-1.25-11.71-2.38-17.58-3.5-1.96-.37-3.89-.11-5.88.31-2.24.47-4.61.3-6.92.43-2.55.14-5.11.21-7.64.48-3.96.42-7.93.86-11.86,1.51-3.4.56-6.61,1.74-9.56,3.61-3.9,2.48-7.84,4.89-11.79,7.3-2.78,1.7-5.62,3.31-8.37,5.05-1.27.8-2.41,1.81-3.59,2.74-3.18,2.51-6.24,5.2-9.56,7.51-3.26,2.26-6.8,4.13-10.2,6.19-.4.24-.73.58-.93.74,1.79,1.62,3.53,3.2,5.41,4.91-.23.34-.47.69-.79,1.17.15.22.35.78.59.8,2.04.2,3.09,2,4.73,2.82.41.21.81.54,1.07.92,1.56,2.32,3.79,3.86,6.14,5.19,3.93,2.23,7.94,4.33,11.94,6.44,1.69.89,3.39,1.78,5.15,2.48,5.45,2.17,10.94,4.24,16.48,6.38.2-.3.51-.55.51-.81,0-1.06-.07-2.12-.12-3.17-.05-.99-.21-1.98-.13-2.95.08-1.02.45-2.01.56-3.03.12-1.09.16-2.21.11-3.3-.12-2.44.55-4.73,1.2-7.03.17-.61.44-1.24.41-1.85-.19-3.96,1.7-7.1,4.58-9.31,4.79-3.68,9.93-6.88,14.93-10.29,2.91-.65,5.4-2.54,8.55-2.57,1.45-.01,2.87-.93,4.35-1.08,2.05-.2,4.13-.1,6.19-.05,2.93.08,5.85.32,8.6,1.43,1.03.41,2.02.91,3.02,1.37.72.33,1.41.82,2.17.97,2.15.44,3.76,1.7,5.22,3.2,1.61,1.65,3.28,3.26,4.72,5.05,2.4,2.99,3.25,6.67,4.39,10.25,1.4,4.41,1.34,8.99,1.62,13.48.19,2.99-.8,6.05-1.2,9.09-.27,2.05-.43,4.11-.67,6.44.67.11,1.36.41,1.95.28,1.69-.39,3.35-.94,5.02-1.45.3-.09.73-.16.84-.38.76-1.51,2.27-1.77,3.63-2.2,1.81-.57,3.66-1.04,5.51-1.49.73-.18,1.51-.15,2.26-.27.37-.05.97-.12,1.04-.33.58-1.69,2.41-1.67,3.5-2.64.32-.28.87-.47,1.29-.44,1.23.09,2.43.31,2.56-1.49.02-.21.55-.6.7-.54,1.21.47,1.86-1.68,3.24-.65.16.12,1.39-.63,1.55-1.16.47-1.58,1.76-1.79,2.96-1.9,1.13-.1,2.18.1,2.29-1.48.02-.23.37-.53.63-.64,2.65-1.07,4.77-3.27,7.76-3.62.37-.04.85-.21,1.07-.48,1.69-2.13,4.04-3.2,6.46-4.2.28-.12.5-.38.74-.58,1.41-1.21,2.96-2.13,4.81-2.53.61-.13,1.24-.4,1.72-.78,3.11-2.44,6.17-4.95,9.29-7.37.57-.44,1.38-.56,2.04-.91.54-.28,1.22-.57,1.48-1.05.94-1.77,2.63-2.68,4.09-3.87,2.47-2.01,4.9-4.06,7.67-6.36-3.28-.36-6.13-.53-8.93-1.01ZM535.8,18.03c3.31,1.11,6.61,2.22,9.92,3.34.05-.18.11-.36.16-.55-3.02-2.03-6.67-2.01-10.08-2.79ZM458.43,9.89c0,.07,0,.14,0,.21.77-.04,1.55-.01,2.31-.14.84-.14,1.66-.42,2.49-.64-.02-.08-.03-.16-.05-.23-1.59.27-3.17.53-4.76.8ZM532.47,15.55c-.5.2-1.11.44-2.04.82,1.03.41,1.82.72,3.04,1.2-.44-.89-.7-1.4-1-2.02ZM448.84,11.83c.61.16.77.26.9.23,1.13-.23,2.26-.49,3.39-.74-.03-.14-.07-.29-.1-.43-1.26.28-2.52.56-4.18.94ZM417.01,95.73c.12-.45.27-.77.21-.81-.39-.28-.81-.5-1.23-.75-.1.13-.2.27-.29.4.39.34.78.69,1.31,1.16ZM511.29,10.86c-.03.11-.06.22-.09.34.58.17,1.16.34,1.75.51l.07-.5c-.58-.12-1.15-.23-1.73-.35ZM527.17,15.29c.03-.15.06-.29.1-.44-.72-.18-1.45-.35-2.17-.53-.02.17-.04.34-.06.51.71.15,1.43.3,2.14.45ZM466.2,8.46c0,.1,0,.2.01.31.76-.04,1.52-.08,2.27-.12-.01-.1-.03-.2-.04-.31-.75.04-1.5.08-2.25.12ZM493.28,5.98c0-.13,0-.25,0-.38-.58,0-1.17-.02-1.75-.03,0,.13,0,.25,0,.38.58,0,1.17.02,1.75.03Z"/>
  </g>
</svg>