<?xml version="1.0" encoding="UTF-8"?>
<svg id="Capa_2" xmlns="http://www.w3.org/2000/svg" viewBox="0 0 280.43 129.35">
  <defs>
    <style>
      .cls-1 {
        fill: #30c;
      }
    </style>
  </defs>
  <g id="Capa_1-2" data-name="Capa_1">
    <path class="cls-1" d="M59.55,90.2c-1.2-1.25-2.38-2.52-3.59-3.76-1.49-1.53-3-3.05-4.5-4.56-.67-.67-1.29-1.43-2.07-1.96-1.28-.88-2.29-1.72-1.98-3.56.09-.52-.73-1.36-1.33-1.76-.39-.26-1.13,0-1.95.05-.04-.09-.1-.59-.36-.74-2.24-1.28-2.58-3.48-2.95-5.73-.12-.72-.23-1.23.27-1.92.95-1.31.14-2.81-1.52-2.97-.71-.07-1.44-.04-2.15-.05-5.9-.1-11.8-.13-17.7-.31-4.04-.12-8.08-.43-12.11-.66-.32-.02-.68.04-.94-.1-.39-.2-.96-.53-.97-.83-.02-.42.4-.86.74-1.46-.4-.35-.94-.83-1.46-1.28.2-.17.37-.31.8-.67-1.67-.2-3.05-.37-4.58-.56.47-1.24,1.75-1.12,2.73-1.61-1.04-1.28-2.46-.53-3.9-1.01,1.12-.9,2.08-1.74,3.12-2.48,1.09-.77,1.12-.73,1.16-2.23,2.86-.69,5.74-1.61,8.7-2.04,3.23-.47,6.26-1.68,9.44-2.22,3.36-.57,6.64-1.65,10.1-1.58.16,0,.36.05.46-.02,2.74-2.08,6.17-1.9,9.27-2.62,7.31-1.69,14.38-4.04,21.38-6.69,2.75-1.04,5.65-1.7,8.44-2.66,2.17-.74,4.26-1.7,6.41-2.5,1.34-.49,2.76-.76,4.09-1.29,2.34-.94,5.26-.56,6.95-3.07.18-.27,1.13-.26,1.57-.05,1.07.51,1.94.21,2.96-.15,1.5-.51,2.95-1.7,4.72-.69.19.11.6-.16.91-.23,1.12-.25,2.11-.79,3.44-.23.72.31,1.94-.47,2.9-.83,1.26-.48,2.52-.98,3.72-1.59.63-.32,1.13-.9,1.56-1.25-.27-1.19-2.05.28-1.61-1.33,4.71-3.73,10.64-4.49,15.95-6.72,4.24-1.78,8.76-2.9,13.19-4.2,1.33-.39,2.78-.4,4.16-.65.51-.09.98-.41,1.49-.55,6.09-1.61,12.17-3.28,18.28-4.78,3.16-.77,6.4-1.26,9.6-1.84,1.81-.33,3.58-.49,5.3.55,1.12.68,2.32.22,3.5-.43,1.47,1.31,3.04,1.51,4.91.49.68-.37,1.93-.87,2.69.62.27.52,1.58.59,2.43.72,2.56.38,5.14.23,7.71,1.08,2.06.69,4.42.49,6.64.61,1.07.06,1.92.01,2.96.86,1.05.85,2.9.71,4.51.58-.23-.13-.46-.26-1.02-.57.95.22,1.56.34,2.15.51,7.55,2.18,14.75,4.99,20.68,10.44,2.57,2.37,5.48,4.37,8.16,6.62,2.28,1.91,4.64,3.77,6.62,5.95,1.57,1.73,2.6,3.95,3.93,5.9.56.82,1.02,1.83,2.32,1.83.31,0,.78.4.88.71.52,1.64,2.51,2.4,2.57,4.33,0,.33.36.82.67.94,2.15.89,2.78,3.15,4.27,4.64,1.46,1.46,2.74,3.1,4.06,4.71,2.31,2.82,4.62,5.64,6.86,8.51.57.72.95,1.61,1.32,2.47,1.19,2.76,2.55,5.48,3.45,8.33.97,3.08.39,6.14-1.19,8.98-.56,1.02-1.16,1.56-2.2.51-.14-.14-.51-.14-.75-.1-.63.1-1.24.28-1.86.4-.42.08-1.06-1.23-1.28.2-.42-.17-.92-.57-1.23-.46-.61.23-1.11.75-1.9,1.32-2.75-1.87-5.67-3.86-8.91-6.06-.39.47-.83,1.01-1.48,1.78-.11-1.22-.19-2.14-.29-3.35q-1.23,1.5-.44,6.79c-1.52,1.72-3.08,3.45-4.58,5.23-.29.34-.36.87-.57,1.29-.22.42-.4.97-.76,1.17-1.98,1.12-3.43,2.87-5.08,4.34-2.96,2.64-6,5.12-9.46,7.1-.91.52-1.55,1.53-2.32,2.3-.65.65-1.21,1.45-1.97,1.91-1.77,1.06-3.62,2-5.47,2.91-1.42.7-2.87,1.33-4.33,1.93-1.08.44-2.14.81-3.09,1.61-.88.75-2.09,1.12-3.15,1.64-3.47,1.72-6.89,3.58-10.45,5.09-1.93.82-3.36,2.3-5.19,3.2-3.57,1.77-7.2,3.51-11.15,3.97-2.71.32-4.98,1.68-7.53,2.25-3.41.76-6.84,1.42-10.27,2.13-.96.2-1.91.41-2.87.61-.05-.19-.11-.37-.16-.56.35-.16.71-.31,1.09-.48-.09-.06-.18-.17-.28-.18-6.5-.26-13-.53-19.5-.74-3.34-.11-6.71.11-10.02-.26-3.78-.43-7.53-1.25-11.25-2.08-3.48-.78-6.91-1.81-10.37-2.71-.4-.1-.84-.05-1.33.38,1.03.24,2.07.47,3.1.71.58.14,1.09.35.88,1.12l.05-.03c-2.23-.5-4.45-1.01-6.68-1.51,0-.11.02-.22.02-.34.5-.17.99-.33,2.04-.68-1.88-.71-3.32-1.23-4.75-1.8-2.79-1.12-5.56-2.3-8.37-3.38-1.23-.47-2.54-.76-3.82-1.13l.09.04c-.43-.44-.79-1.01-1.31-1.3-3.84-2.16-7.7-4.27-11.57-6.36-.31-.17-.76-.05-1.15-.07-.78-1.58-2.38-1.8-3.82-2.29l.07.07c-.34-.4-.6-.92-1.03-1.18-2.02-1.25-4.06-2.46-6.13-3.61-.53-.3-1.2-.34-1.8-.5l.08.06c-.73-1.32-1.99-1.8-3.34-2.14l.09.08c-.82-.73-1.58-1.55-2.49-2.16-1.64-1.09-3.36-2.05-5.05-3.06l.09.07c-1-1.47-2.3-2.56-4.01-3.12h0ZM51.01,62.64c2.78,2.29,5.23,4.32,7.71,6.32,1.46,1.18,3.16,2.07,4.11,3.84.26.48.95.76,1.48,1.04.66.34,1.47.46,2.04.9,3.14,2.41,6.21,4.9,9.33,7.32.49.38,1.12.65,1.73.77,1.85.39,3.4,1.3,4.82,2.5.24.2.47.46.75.58,2.42.98,4.78,2.04,6.48,4.16.22.27.69.44,1.07.48,2.99.33,5.13,2.51,7.78,3.57.26.1.62.4.63.63.12,1.58,1.17,1.37,2.3,1.47,1.19.1,2.49.31,2.97,1.88.16.52,1.39,1.27,1.55,1.15,1.38-1.04,2.04,1.11,3.25.64.15-.06.69.33.7.53.15,1.8,1.35,1.57,2.57,1.47.42-.03.97.15,1.29.43,1.1.96,2.93.93,3.52,2.62.07.21.67.27,1.04.33.75.11,1.53.08,2.26.25,1.85.44,3.7.89,5.52,1.46,1.37.42,2.88.67,3.64,2.18.11.21.54.28.84.37,1.67.49,3.33,1.04,5.03,1.42.59.13,1.28-.18,1.95-.29-.25-2.33-.43-4.39-.71-6.44-.42-3.04-1.42-6.09-1.25-9.08.26-4.5.17-9.07,1.55-13.49,1.11-3.58,1.95-7.27,4.33-10.27,1.43-1.8,3.09-3.42,4.69-5.08,1.45-1.51,3.05-2.78,5.2-3.23.76-.16,1.44-.65,2.17-.98,1-.47,1.99-.97,3.01-1.39,2.75-1.13,5.67-1.39,8.6-1.48,2.06-.07,4.14-.17,6.19.02,1.47.14,2.9,1.05,4.35,1.05,3.15.01,5.66,1.89,8.57,2.52,5.01,3.38,10.18,6.56,14.99,10.2,2.89,2.19,4.8,5.32,4.63,9.28-.03.61.24,1.24.42,1.84.67,2.29,1.35,4.58,1.24,7.02-.05,1.1,0,2.21.13,3.3.12,1.02.5,2.01.58,3.03.08.98-.07,1.97-.12,2.96-.05,1.06-.12,2.12-.11,3.18,0,.25.31.5.52.81,5.54-2.17,11.01-4.28,16.45-6.48,1.76-.71,3.46-1.61,5.14-2.51,3.99-2.13,7.98-4.26,11.9-6.51,2.34-1.34,4.56-2.9,6.11-5.23.25-.38.65-.72,1.06-.93,1.64-.83,2.68-2.64,4.72-2.85.24-.02.43-.58.58-.8-.33-.48-.57-.83-.8-1.17,1.87-1.71,3.6-3.3,5.38-4.94-.2-.16-.54-.5-.94-.73-3.42-2.04-6.96-3.89-10.24-6.13-3.34-2.29-6.41-4.96-9.61-7.45-1.19-.93-2.34-1.93-3.61-2.72-2.76-1.72-5.61-3.31-8.4-5-3.96-2.39-7.92-4.78-11.83-7.24-2.96-1.86-6.18-3.01-9.58-3.56-3.93-.63-7.9-1.05-11.87-1.44-2.54-.25-5.09-.31-7.64-.44-2.31-.12-4.68.06-6.92-.39-1.99-.41-3.92-.66-5.88-.28-5.86,1.15-11.73,2.32-17.56,3.61-7.47,1.64-14.91,3.4-22.37,5.09-1.78.4-3.61.63-5.37,1.11-3.58.98-7.08,2.25-10.69,3.09-4.16.97-8.4,1.56-12.6,2.37-7.98,1.53-15.73,4.07-23.8,5.26-6.06.9-12.04,2.36-18.07,3.43-2.79.5-5.64.68-8.92,1.06ZM117.6,17.82c.05.18.11.36.16.55,3.3-1.13,6.6-2.26,9.9-3.39-3.41.8-7.06.8-10.06,2.85ZM200.23,5.61c-.01.08-.03.16-.04.23.83.21,1.65.49,2.49.62.76.12,1.54.09,2.31.13,0-.07,0-.14,0-.21-1.59-.26-3.18-.52-4.76-.77ZM129.99,14.5c1.21-.49,2-.81,3.03-1.22-.93-.37-1.54-.61-2.04-.8-.3.62-.55,1.14-.99,2.02ZM210.4,7.35c-.03.14-.07.29-.1.43,1.13.24,2.26.49,3.39.72.13.03.29-.07.9-.24-1.67-.36-2.93-.64-4.19-.91ZM248.21,90.82c-.1-.13-.2-.26-.3-.4-.41.24-.84.47-1.23.75-.06.04.09.36.21.81.53-.48.92-.82,1.31-1.17ZM150.41,8.01l.07.5c.58-.17,1.16-.35,1.74-.52-.03-.11-.06-.22-.09-.34-.57.12-1.15.24-1.72.36ZM138.42,11.71c-.02-.17-.04-.34-.07-.51-.72.18-1.45.36-2.17.54.03.15.07.29.1.44.71-.15,1.43-.31,2.14-.46ZM194.96,4.89c-.01.1-.02.2-.04.31l2.27.11c0-.1,0-.2.01-.31l-2.25-.1ZM171.87,2.64c0-.13,0-.25,0-.38-.58.01-1.17.02-1.75.04,0,.13,0,.25,0,.38.58-.01,1.17-.02,1.75-.04Z"/>
  </g>
</svg>