<?xml version="1.0" encoding="UTF-8"?>
<svg id="Capa_2" xmlns="http://www.w3.org/2000/svg" viewBox="0 0 97 97">
  <defs>
    <style>
      .cls-1 {
        fill: #30c;
      }

      .cls-2 {
        fill: #fff;
      }
    </style>
  </defs>
  <g id="Capa_1-2" data-name="Capa_1">
    <circle class="cls-1" cx="48.5" cy="48.5" r="48.5"/>
    <g id="Capa_2-2" data-name="Capa_2">
      <g id="Capa_1-2">
        <path class="cls-2" d="M23.41,57.99c-.33-.33-.66-.69-.99-1.04-.41-.41-.82-.85-1.23-1.26-.19-.19-.36-.38-.58-.55-.36-.25-.63-.47-.55-.99,0-.14-.19-.38-.36-.49-.11-.08-.3,0-.55,0,0,0,0-.16-.11-.19-.6-.36-.71-.96-.82-1.56-.03-.19-.05-.33.08-.52.27-.36.03-.77-.41-.82h-.6c-1.62,0-3.24-.03-4.86-.08-1.1-.03-2.22-.11-3.32-.19h-.25c-.11-.05-.27-.14-.27-.22,0-.11.11-.25.19-.41-.11-.08-.25-.22-.41-.36.05-.05.11-.08.22-.19-.47-.05-.82-.11-1.26-.16.14-.33.49-.3.74-.44-.27-.36-.69-.14-1.07-.27.3-.25.58-.47.85-.69.3-.22.3-.19.33-.6.8-.19,1.56-.44,2.39-.55.88-.14,1.73-.47,2.58-.6.93-.16,1.81-.47,2.77-.44h.14c.74-.58,1.7-.52,2.55-.71,2-.47,3.95-1.1,5.87-1.84.77-.27,1.56-.47,2.31-.74.6-.19,1.18-.47,1.76-.69.36-.14.77-.22,1.13-.36.63-.25,1.45-.16,1.89-.85.05-.08.3-.08.44,0,.3.14.52.05.82-.03.41-.14.8-.47,1.29-.19.05.03.16-.05.25-.05.3-.05.58-.22.93-.05.19.08.52-.14.8-.22.36-.14.69-.27,1.02-.44.16-.08.3-.25.44-.33-.08-.33-.58.08-.44-.36,1.29-1.02,2.91-1.23,4.36-1.84,1.15-.49,2.41-.8,3.62-1.15.36-.11.77-.11,1.15-.19.14,0,.27-.11.41-.16,1.67-.44,3.35-.91,5.02-1.32.88-.22,1.76-.36,2.63-.49.49-.08.99-.14,1.45.16.3.19.63.05.96-.11.41.36.82.41,1.34.14.19-.11.52-.25.74.16.08.14.44.16.66.19.71.11,1.4.05,2.11.3.58.19,1.21.14,1.81.16.3,0,.52,0,.82.25.3.22.8.19,1.23.16-.05-.03-.14-.08-.27-.16.25.05.44.08.58.14,2.09.6,4.06,1.37,5.68,2.85.71.66,1.51,1.21,2.25,1.81.63.52,1.26,1.04,1.81,1.65.44.47.71,1.1,1.07,1.62.16.22.27.49.63.49s.22.11.25.19c.14.44.69.66.71,1.18,0,.08.11.22.19.25.58.25.77.88,1.18,1.26.41.41.74.85,1.13,1.29.63.77,1.26,1.54,1.89,2.33.16.19.27.44.36.69.33.77.69,1.51.96,2.28.27.85.11,1.67-.33,2.47-.16.27-.33.44-.6.14-.03-.03-.14-.03-.22,0-.16,0-.33.08-.52.11-.11,0-.3-.33-.36.05-.11-.05-.25-.16-.33-.14-.16.05-.3.22-.52.36-.77-.52-1.56-1.07-2.44-1.67-.11.14-.22.27-.41.49-.03-.33-.05-.58-.08-.91-.22.27-.27.91-.11,1.87-.41.47-.85.93-1.26,1.43-.08.08-.11.25-.16.36-.05.11-.11.27-.22.33-.55.3-.93.8-1.4,1.18-.82.71-1.65,1.4-2.61,1.95-.25.14-.44.41-.63.63-.16.19-.33.38-.55.52-.49.3-.99.55-1.51.8-.38.19-.8.36-1.18.52-.3.11-.58.22-.85.44-.25.22-.58.3-.85.44-.96.47-1.89.99-2.85,1.4-.52.22-.93.63-1.43.88-.99.49-1.98.96-3.05,1.1-.74.08-1.37.47-2.06.6-.93.22-1.87.38-2.83.58-.27.05-.52.11-.8.16,0-.05-.03-.11-.05-.16.11-.05.19-.08.3-.14,0,0-.05-.05-.08-.05-1.78-.08-3.57-.14-5.35-.19-.91-.03-1.84.03-2.74-.08-1.04-.11-2.06-.33-3.07-.58-.96-.22-1.89-.49-2.85-.74-.11,0-.22,0-.36.11.27.05.58.14.85.19.16.03.3.08.25.3h0c-.6-.14-1.21-.27-1.84-.41v-.08c.14-.05.27-.08.55-.19-.52-.19-.91-.33-1.32-.49-.77-.3-1.54-.63-2.31-.93-.33-.14-.69-.22-1.04-.3h0c-.11-.11-.22-.27-.36-.36-1.04-.6-2.11-1.18-3.18-1.76-.08-.05-.22,0-.33,0-.22-.44-.66-.49-1.04-.63h0c-.08-.08-.16-.22-.27-.3-.55-.33-1.13-.69-1.67-.99-.14-.08-.33-.08-.49-.14h0c-.19-.36-.55-.47-.91-.58h0c-.22-.19-.44-.41-.69-.58-.44-.3-.93-.58-1.37-.85h0c-.27-.38-.63-.69-1.1-.85h0l.19.08ZM21.08,50.42c.77.63,1.43,1.18,2.11,1.73.41.33.88.58,1.13,1.04.08.14.27.22.41.27.19.08.41.14.55.25.85.66,1.7,1.34,2.55,2,.14.11.3.19.47.22.49.11.93.36,1.32.69.05.05.14.14.22.16.66.27,1.32.55,1.78,1.15.05.08.19.11.3.14.82.08,1.4.69,2.14.99.08,0,.16.11.16.16.03.44.33.38.63.41.33,0,.69.08.82.52.05.14.38.36.44.33.38-.27.55.3.88.16.05,0,.19.08.19.14.05.49.36.44.71.41.11,0,.27.05.36.11.3.27.8.25.96.71,0,.05.19.08.27.08.22.03.41,0,.63.05.49.11,1.02.25,1.51.41.38.11.8.19.99.6.03.05.14.08.22.11.47.14.91.27,1.37.38.16.03.36-.05.52-.08-.05-.63-.11-1.21-.19-1.76-.11-.82-.38-1.67-.33-2.5.08-1.23.05-2.5.44-3.7.3-.99.52-2,1.18-2.83.38-.49.85-.93,1.29-1.4.38-.41.85-.77,1.43-.88.22-.05.38-.19.6-.27.27-.14.55-.27.82-.38.77-.3,1.56-.38,2.36-.41.58,0,1.13-.05,1.7,0,.41.03.8.27,1.21.27.85,0,1.56.52,2.36.69,1.37.93,2.8,1.81,4.12,2.8.8.6,1.32,1.45,1.26,2.55,0,.16.05.33.11.49.19.63.38,1.26.33,1.92,0,.3,0,.6.03.91.03.27.14.55.16.82,0,.27,0,.55-.03.82,0,.3-.03.58-.03.88,0,.05.08.14.14.22,1.51-.6,3.02-1.18,4.5-1.78.49-.19.96-.44,1.4-.69,1.1-.58,2.2-1.18,3.27-1.78.63-.36,1.26-.8,1.67-1.43.05-.11.16-.19.3-.25.44-.22.74-.71,1.29-.77.05,0,.11-.16.16-.22-.08-.14-.16-.22-.22-.33.52-.47.99-.91,1.48-1.34-.05-.05-.14-.14-.25-.19-.93-.55-1.92-1.07-2.8-1.67-.91-.63-1.76-1.37-2.63-2.06-.33-.25-.63-.52-.99-.74-.77-.47-1.54-.91-2.31-1.37-1.1-.66-2.17-1.32-3.24-1.98-.82-.52-1.7-.82-2.63-.99-1.07-.16-2.17-.27-3.27-.38-.69-.05-1.4-.08-2.09-.11-.63-.03-1.29,0-1.89-.11-.55-.11-1.07-.19-1.62-.08-1.62.33-3.21.63-4.83.99-2.06.44-4.09.93-6.15,1.4-.49.11-.99.16-1.48.3-.99.27-1.95.6-2.94.85-1.15.27-2.31.44-3.46.66-2.2.41-4.31,1.13-6.53,1.45-1.67.25-3.29.66-4.97.93-.77.14-1.54.19-2.44.3h0l.03-.03ZM39.35,38.12c0,.05.03.11.05.14.91-.3,1.81-.63,2.72-.93-.93.22-1.95.22-2.77.77h0v.03ZM62.02,34.78v.05c.22.05.44.14.69.16.22.03.41,0,.63.03v-.05c-.44-.08-.88-.14-1.32-.22h0v.03ZM42.76,37.22c.33-.14.55-.22.82-.33-.25-.11-.41-.16-.55-.22-.08.16-.16.3-.27.55ZM64.82,35.24s0,.08-.03.11c.3.05.63.14.93.19.03,0,.08,0,.25-.05-.47-.11-.8-.16-1.15-.25h0ZM75.19,58.16s-.05-.08-.08-.11c-.11.05-.22.14-.33.22,0,0,0,.11.05.22.14-.14.25-.22.36-.33h0ZM48.36,35.43v.14c.19-.05.33-.11.49-.14v-.08c-.16.03-.3.05-.47.11h0l-.03-.03ZM45.06,36.45v-.14c-.19.05-.38.11-.6.14,0,.03,0,.08.03.11.19-.03.38-.08.58-.14h0v.03ZM60.59,34.58v.08h.63v-.05h-.6v-.03h-.03ZM54.26,33.95v-.11h-.49v.11h.49Z"/>
      </g>
    </g>
  </g>
</svg>