<?xml version="1.0" encoding="UTF-8"?>
<svg id="Capa_2" xmlns="http://www.w3.org/2000/svg" viewBox="0 0 386.91 386.91">
  <defs>
    <style>
      .cls-1 {
        fill: #30c;
      }

      .cls-2 {
        fill: none;
        stroke: #30c;
        stroke-miterlimit: 10;
        stroke-width: 3px;
      }
    </style>
  </defs>
  <g id="Capa_1-2" data-name="Capa_1">
    <g>
      <path class="cls-1" d="M65.42,208.39l6.33-5.34c1.12,1.57,2.19,2.52,3.76,2.52s2.69-1.32,2.69-3.35v-18h9.43v17.83c0,3.81-.87,6.41-3.02,8.56-1.99,1.99-4.88,3.14-8.36,3.14-5.54,0-8.73-2.23-10.84-5.38Z"/>
      <path class="cls-1" d="M99.71,184.03h9.6l12.2,29.16h-10.51l-1.53-3.89h-10.13l-1.49,3.89h-10.34l12.2-29.16ZM107.07,202.43l-2.65-7.03-2.65,7.03h5.29Z"/>
      <path class="cls-1" d="M116.45,184.23h10.84l5.63,16.26,5.63-16.26h10.67l-11.75,29.16h-9.27l-11.75-29.16Z"/>
      <path class="cls-1" d="M156.37,184.03h9.6l12.2,29.16h-10.51l-1.53-3.89h-10.13l-1.49,3.89h-10.34l12.2-29.16ZM163.73,202.43l-2.65-7.03-2.65,7.03h5.29Z"/>
      <path class="cls-1" d="M176.55,208.85l5.17-6.16c3.14,2.4,6.74,3.39,10.13,3.39,1.74,0,2.48-.46,2.48-1.24v-.08c0-.83-.91-1.28-4.01-1.9-6.49-1.32-12.2-3.19-12.2-9.31v-.08c0-5.5,4.3-9.76,12.29-9.76,5.58,0,9.72,1.32,13.07,3.97l-4.71,6.54c-2.73-1.99-6-2.85-8.69-2.85-1.45,0-2.11.5-2.11,1.2v.08c0,.79.79,1.28,3.85,1.86,7.4,1.36,12.37,3.52,12.37,9.35v.08c0,6.08-5.01,9.8-12.78,9.8-5.87,0-11.17-1.66-14.85-4.88Z"/>
      <path class="cls-1" d="M205.75,198.79v-.08c0-8.65,6.74-15.1,15.39-15.1,6.37,0,10.67,3.1,13.11,7.53l-7.98,4.67c-1.08-2.07-2.61-3.52-5.25-3.52-3.27,0-5.42,2.85-5.42,6.33v.08c0,3.76,2.23,6.41,5.42,6.41,2.73,0,4.26-1.49,5.46-3.64l7.98,4.51c-2.44,4.3-6.49,7.82-13.69,7.82-8.03,0-15.02-6.04-15.02-15.02Z"/>
      <path class="cls-1" d="M236.31,184.23h14.15c5.13,0,8.4,1.28,10.42,3.31,1.74,1.74,2.65,3.89,2.65,6.87v.08c0,4.22-2.19,7.16-5.71,8.85l6.74,9.85h-11.04l-5.46-8.27h-2.07v8.27h-9.68v-28.96ZM250.17,198.01c2.32,0,3.72-1.03,3.72-2.81v-.08c0-1.86-1.45-2.77-3.68-2.77h-4.22v5.67h4.18Z"/>
      <path class="cls-1" d="M265.97,184.23h9.68v28.96h-9.68v-28.96Z"/>
      <path class="cls-1" d="M279.04,184.23h13.03c7.69,0,12.95,3.43,12.95,10.3v.08c0,6.99-5.34,10.71-13.15,10.71h-3.14v7.86h-9.68v-28.96ZM291.32,198.42c2.48,0,4.14-1.12,4.14-3.19v-.08c0-2.11-1.53-3.18-4.1-3.18h-2.65v6.45h2.61Z"/>
      <path class="cls-1" d="M314.48,192.42h-8.52v-8.19h26.72v8.19h-8.52v20.77h-9.68v-20.77Z"/>
    </g>
    <rect class="cls-2" x="1.5" y="1.5" width="383.91" height="383.91"/>
  </g>
</svg>