<?xml version="1.0" encoding="UTF-8"?>
<svg id="Capa_2" xmlns="http://www.w3.org/2000/svg" viewBox="0 0 386.91 386.91">
  <defs>
    <style>
      .cls-1 {
        fill: #30c;
      }

      .cls-2 {
        fill: none;
        stroke: #30c;
        stroke-miterlimit: 10;
        stroke-width: 3px;
      }
    </style>
  </defs>
  <g id="Capa_1-2" data-name="Capa_1">
    <g>
      <path class="cls-1" d="M110.59,151.15h9.68v10.22h8.85v-10.22h9.68v28.96h-9.68v-10.38h-8.85v10.38h-9.68v-28.96Z"/>
      <path class="cls-1" d="M149.52,159.34h-8.52v-8.19h26.72v8.19h-8.52v20.77h-9.68v-20.77Z"/>
      <path class="cls-1" d="M169.9,151.15h10.09l6.21,10.18,6.21-10.18h10.09v28.96h-9.64v-14.35l-6.66,10.3h-.17l-6.66-10.3v14.35h-9.47v-28.96Z"/>
      <path class="cls-1" d="M205.8,151.15h9.68v20.68h13.61v8.27h-23.29v-28.96Z"/>
      <path class="cls-1" d="M229.38,175.97l5.34-6.21c2.48,1.99,4.8,3.14,7.16,3.14s3.64-1.2,3.64-2.77v-.08c0-1.7-1.37-2.77-3.39-2.77-1.78,0-3.06.74-4.43,1.82l-5.83-2.9.83-15.06h20.89v7.65h-13.69l-.21,3.76c1.53-.95,3.23-1.57,5.5-1.57,4.8,0,9.68,3.06,9.68,9.14v.08c0,6.7-5.5,10.51-12.87,10.51-5.63,0-9.39-1.86-12.62-4.76Z"/>
      <path class="cls-1" d="M271.32,147.1h7.4l-18.33,38.31h-7.4l18.33-38.31Z"/>
      <path class="cls-1" d="M151.91,215.35v-.08c0-8.65,6.74-15.1,15.39-15.1,6.37,0,10.67,3.1,13.11,7.53l-7.98,4.67c-1.08-2.07-2.61-3.52-5.25-3.52-3.27,0-5.42,2.85-5.42,6.33v.08c0,3.76,2.23,6.41,5.42,6.41,2.73,0,4.26-1.49,5.46-3.64l7.98,4.51c-2.44,4.3-6.49,7.82-13.69,7.82-8.03,0-15.02-6.04-15.02-15.02Z"/>
      <path class="cls-1" d="M180.08,225.4l5.17-6.16c3.14,2.4,6.74,3.39,10.13,3.39,1.74,0,2.48-.46,2.48-1.24v-.08c0-.83-.91-1.28-4.01-1.9-6.49-1.32-12.2-3.19-12.2-9.31v-.08c0-5.5,4.3-9.76,12.29-9.76,5.58,0,9.72,1.32,13.07,3.97l-4.71,6.54c-2.73-1.99-6-2.85-8.69-2.85-1.45,0-2.11.5-2.11,1.2v.08c0,.79.79,1.28,3.85,1.86,7.4,1.36,12.37,3.52,12.37,9.35v.08c0,6.08-5.01,9.8-12.78,9.8-5.87,0-11.17-1.66-14.85-4.88Z"/>
      <path class="cls-1" d="M207.13,225.4l5.17-6.16c3.14,2.4,6.74,3.39,10.13,3.39,1.74,0,2.48-.46,2.48-1.24v-.08c0-.83-.91-1.28-4.01-1.9-6.49-1.32-12.2-3.19-12.2-9.31v-.08c0-5.5,4.3-9.76,12.29-9.76,5.58,0,9.72,1.32,13.07,3.97l-4.71,6.54c-2.73-1.99-6-2.85-8.69-2.85-1.45,0-2.11.5-2.11,1.2v.08c0,.79.79,1.28,3.85,1.86,7.4,1.36,12.37,3.52,12.37,9.35v.08c0,6.08-5.01,9.8-12.78,9.8-5.87,0-11.17-1.66-14.85-4.88Z"/>
    </g>
    <rect class="cls-2" x="1.5" y="1.5" width="383.91" height="383.91"/>
  </g>
</svg>