<?xml version="1.0" encoding="UTF-8"?>
<svg id="Capa_2" xmlns="http://www.w3.org/2000/svg" viewBox="0 0 386.91 386.91">
  <defs>
    <style>
      .cls-1 {
        fill: none;
        stroke-width: 3px;
      }

      .cls-1, .cls-2 {
        stroke: #30c;
        stroke-miterlimit: 10;
      }

      .cls-2 {
        fill: #30c;
      }
    </style>
  </defs>
  <g id="Capa_1-2" data-name="Capa_1">
    <rect class="cls-1" x="1.5" y="1.5" width="383.91" height="383.91"/>
    <g>
      <path class="cls-2" d="M79.33,150.43h9.68v28.95h-9.68v-28.95Z"/>
      <path class="cls-2" d="M92.39,150.43h9.68v20.68h13.6v8.27h-23.28v-28.95Z"/>
      <path class="cls-2" d="M117.78,150.43h9.68v20.68h13.6v8.27h-23.28v-28.95Z"/>
      <path class="cls-2" d="M142.1,166.39v-15.96h9.84v15.84c0,3.6,1.86,5.13,4.47,5.13s4.47-1.41,4.47-4.92v-16.04h9.84v15.75c0,9.88-5.75,13.77-14.39,13.77s-14.22-3.97-14.22-13.56Z"/>
      <path class="cls-2" d="M171.37,175.03l5.17-6.16c3.14,2.4,6.74,3.39,10.13,3.39,1.74,0,2.48-.46,2.48-1.24v-.08c0-.83-.91-1.28-4.01-1.9-6.49-1.32-12.2-3.18-12.2-9.3v-.08c0-5.5,4.3-9.76,12.28-9.76,5.58,0,9.72,1.32,13.07,3.97l-4.71,6.53c-2.73-1.98-6-2.85-8.68-2.85-1.45,0-2.11.5-2.11,1.2v.08c0,.79.79,1.28,3.85,1.86,7.4,1.36,12.36,3.51,12.36,9.34v.08c0,6.08-5,9.8-12.78,9.8-5.87,0-11.17-1.65-14.84-4.88Z"/>
      <path class="cls-2" d="M207.6,158.62h-8.52v-8.19h26.71v8.19h-8.52v20.76h-9.68v-20.76Z"/>
      <path class="cls-2" d="M227.98,150.43h14.14c5.13,0,8.39,1.28,10.42,3.31,1.74,1.74,2.65,3.89,2.65,6.86v.08c0,4.22-2.19,7.15-5.71,8.85l6.74,9.84h-11.04l-5.46-8.27h-2.07v8.27h-9.68v-28.95ZM241.84,164.2c2.32,0,3.72-1.03,3.72-2.81v-.08c0-1.86-1.45-2.77-3.68-2.77h-4.22v5.67h4.18Z"/>
      <path class="cls-2" d="M266.61,150.22h9.59l12.2,29.15h-10.5l-1.53-3.89h-10.13l-1.49,3.89h-10.34l12.2-29.15ZM273.97,168.63l-2.65-7.03-2.65,7.03h5.29Z"/>
      <path class="cls-2" d="M287.53,162.5h14.39v7.69h-14.39v-7.69Z"/>
      <path class="cls-2" d="M146.05,208.24h-8.52v-8.19h26.71v8.19h-8.52v20.76h-9.68v-20.76Z"/>
      <path class="cls-2" d="M166.51,200.05h9.68v28.95h-9.68v-28.95Z"/>
      <path class="cls-2" d="M178.92,214.61v-.08c0-8.39,6.91-15.09,15.84-15.09s15.75,6.62,15.75,15.01v.08c0,8.39-6.91,15.09-15.84,15.09s-15.75-6.62-15.75-15.01ZM200.75,214.61v-.08c0-3.43-2.36-6.53-6.08-6.53s-6,3.06-6,6.45v.08c0,3.43,2.36,6.53,6.08,6.53s6-3.06,6-6.45Z"/>
      <path class="cls-2" d="M213.16,200.05h9.06l10.3,12.78v-12.78h9.59v28.95h-8.6l-10.75-13.36v13.36h-9.59v-28.95Z"/>
    </g>
  </g>
</svg>