<?xml version="1.0" encoding="UTF-8"?>
<svg id="Capa_2" xmlns="http://www.w3.org/2000/svg" viewBox="0 0 386.91 386.91">
  <defs>
    <style>
      .cls-1 {
        fill: #30c;
      }

      .cls-2 {
        fill: none;
        stroke: #30c;
        stroke-miterlimit: 10;
        stroke-width: 3px;
      }
    </style>
  </defs>
  <g id="Capa_1-2" data-name="Capa_1">
    <rect class="cls-2" x="1.5" y="1.5" width="383.91" height="383.91"/>
    <g>
      <path class="cls-1" d="M170.46,147.25c.21-2.94.59-5.88.6-8.83.05-17.42-.34-34.84.2-52.24.18-5.87,2.02-11.9,4.21-17.42,2.46-6.21,6.78-6.19,10.28-.53,2.99,4.85,4.22,10.22,4.46,15.89.73,17.28,1.42,34.56,2.4,51.83.23,4.04,1.57,8.01,2.4,12.01.37-.02.73-.05,1.1-.07.12-1.41.36-2.82.34-4.23-.17-15.05-.5-30.09-.5-45.14,0-3.96.85-7.95,1.61-11.87.28-1.43,1.24-2.83,2.19-4.01,2.42-3.02,4.71-2.9,6.73.34.93,1.49,1.69,3.13,2.28,4.79,3.67,10.31,6.13,20.75,5.98,31.89-.23,17.64.31,35.3.48,52.95.07,6.92,2.55,13.2,5.07,19.45.25.62,2.02,1.28,2.64.98,1.56-.75,3.06-1.86,4.23-3.14,4.51-4.96,7.57-10.67,9.66-17.14,3.2-9.89,8.91-17.99,19.27-21.7,1.19-.43,2.56-.53,3.84-.53,2.6,0,4.09,1.34,3.68,4.02-.38,2.44-.79,4.96-1.71,7.23-7.32,17.97-14.17,36.16-22.35,53.74-6.63,14.26-16.51,26.56-28.54,36.81-5.45,4.65-8.77,9.57-7.91,17.06.54,4.68-.05,9.48.16,14.21.11,2.39-.87,3.58-2.79,4.75-11.07,6.79-23.06,8.2-35.61,6.25-6.07-.94-12.1-2.18-18.1-3.46-3.01-.64-4.32-2.43-4.06-5.86.72-9.45,1.13-18.92,1.41-28.39.06-2.12-.33-4.69-1.51-6.36-9.65-13.72-12.73-28.99-13.11-45.59-.66-28.88-2.59-57.73-3.89-86.6-.13-2.93.12-5.93.61-8.83.56-3.28,1.94-3.78,4.64-1.77,3.97,2.96,7.19,6.47,7.83,11.75,1.03,8.46,2.17,16.91,3.29,25.36.16,1.17.12,2.64.81,3.4,1.23,1.34,2.94,2.24,4.45,3.33.62-1.34,1.78-2.68,1.77-4.02-.11-17.18-.44-34.36-.57-51.54-.03-4.37.24-8.76.72-13.11.58-5.25,3.01-8.32,6.15-8.44,3.32-.12,8.23,3.9,8.83,8.09.99,6.9,1.63,13.88,2.02,20.84.64,11.47.87,22.97,1.46,34.44.16,3.19.98,6.35,1.49,9.52.45-.04.9-.08,1.34-.12ZM261.51,153.72c-.35-.42-.69-.84-1.04-1.26-2.7.91-5.86,1.22-8.02,2.84-6.23,4.69-10.74,10.68-13.48,18.27-2.09,5.79-5.43,11.2-8.71,16.47-1.36,2.18-3.83,3.88-6.13,5.21-3.17,1.83-4.9.82-6.36-2.44-4.11-9.15-5.45-18.8-5.47-28.72-.03-15.29-.34-30.58-.02-45.86.23-11.31-2.92-21.73-6.9-32.03-.47-1.21-1.36-2.26-2.51-4.13-1.36,2.5-2.76,4.12-3.15,5.96-.77,3.67-1.37,7.46-1.36,11.2.06,13.98.42,27.96.59,41.94.03,2.72-.08,5.46-.5,8.14-.17,1.09-1.34,2.02-2.05,3.03-.94-.77-2.39-1.36-2.74-2.34-1.32-3.78-3-7.63-3.25-11.54-1.18-18.2-2-36.43-2.78-54.65-.23-5.35-1.42-10.31-4.34-14.78-2.09-3.21-3.78-3.33-5.27.15-1.79,4.19-3.65,8.7-3.89,13.16-.65,12.17-.47,24.38-.62,36.57-.11,8.65-.12,17.3-.41,25.94-.08,2.2-.13,5.54-3.24,5.34-1.34-.09-3.23-2.97-3.59-4.84-.9-4.62-1.21-9.37-1.5-14.09-.95-15.48-1.65-30.99-2.82-46.45-.17-2.26-2.02-4.74-3.75-6.47-2.36-2.35-4.6-1.65-5.64,1.52-.77,2.33-1.33,4.85-1.33,7.28,0,15.52.21,31.04.28,46.56.02,5.33-.05,10.66-.26,15.99-.15,3.58-2.78,5.58-6,4.11-2.02-.92-3.77-3.04-4.93-5.04-.95-1.64-.94-3.87-1.2-5.86-.99-7.63-1.92-15.27-2.89-22.91-.61-4.78-3.55-7.83-8.11-11.13,0,7.08-.25,13.11.04,19.12,1.21,25.08,3.03,50.14,3.74,75.23.46,16.33,2.52,31.83,12.59,45.32.07.09.15.2.17.31.68,3.04,1.96,6.09,1.92,9.12-.11,9-.65,18-1.24,26.98-.16,2.39.65,3.6,2.81,4.05,4.63.97,9.24,2.08,13.92,2.76,12.51,1.81,24.8,1.96,36.14-5.08,1.86-1.16,2.65-2.27,2.59-4.44-.14-5.09.27-10.21-.13-15.28-.49-6.35,2.21-10.85,6.79-14.79,14.03-12.06,25.19-26.4,32.61-43.36,6.54-14.96,12.47-30.18,18.54-45.34,1.25-3.13,1.93-6.49,2.88-9.75Z"/>
      <path class="cls-1" d="M210.05,200.5c-13.5,12.63-36.67,18.25-54.27,8.47-3.87-2.15-6.88-5.95-9.99-9.26-.6-.64-.33-2.97.38-3.82,8.85-10.62,20.77-15.31,34.03-14.19,9.93.84,18.97,5.71,25.74,13.66,1.37,1.61,2.65,3.3,4.12,5.14ZM167.9,185.36c-8.4,2.05-14.95,6.26-20.37,12.7,4.68,7.37,11.43,10.81,20,12.46-4.67-8.8-4.7-16.85.38-25.16ZM184.02,210.54c8.91-1.61,16.06-5.08,22.65-10.17-4.96-6.89-11.05-11.58-19.23-14.29,2.37,8.67,3.08,16.75-3.42,24.47Z"/>
      <path class="cls-1" d="M170.78,179.59c-.38-5.31-.79-10.63-1.1-15.95-.02-.37.65-1.09.99-1.09.41,0,1.15.57,1.19.95.53,5.01.98,10.03,1.36,15.05.03.36-.65.77-1,1.16-.48-.04-.96-.08-1.44-.13Z"/>
      <path class="cls-1" d="M154.17,165.81c1.07,1.36,1.65,1.81,1.85,2.39,1.39,3.99,2.75,8,4,12.04.19.6-.26,1.4-.41,2.11-.65-.49-1.64-.85-1.88-1.49-1.46-3.97-2.78-7.98-4.04-12.02-.19-.62.2-1.43.48-3.04Z"/>
      <path class="cls-1" d="M185.21,178.51c.77-4.78,1.55-9.56,2.36-14.57,2.6,1.5,1.59,11.1-.98,14.71-.46-.05-.92-.09-1.38-.14Z"/>
      <path class="cls-1" d="M162.84,213.07c-2.06,4.92-3.76,9.06-5.57,13.17-.12.28-1.04.35-1.53.25-.22-.04-.53-.86-.4-1.15,1.63-3.9,3.32-7.78,5.06-11.63.11-.25.81-.23,2.44-.63Z"/>
      <path class="cls-1" d="M198.38,185.56c-.25-.62-.89-1.45-.69-1.81,1.75-3.18,3.61-6.29,5.53-9.37.2-.32,1-.44,1.46-.34.27.06.68.89.56,1.1-1.89,3.34-3.85,6.64-5.82,9.94-.1.16-.41.2-1.05.49Z"/>
      <path class="cls-1" d="M170.24,229.29c.37-4.58.65-8.5,1.07-12.41.05-.48.88-.87,1.35-1.3.34.41,1.01.85.98,1.23-.29,3.73-.66,7.46-1.14,11.17-.05.36-1.01.61-2.26,1.3Z"/>
      <path class="cls-1" d="M143.42,177.04c4.22,1.78,5.73,6.17,8.64,9.36-2.39,1.25-6.22-2.66-8.64-9.36Z"/>
      <path class="cls-1" d="M183.91,214.77c.7,4.13,1.39,7.9,1.93,11.68.07.49-.56,1.14-.99,1.6-.09.1-1.06-.29-1.09-.53-.57-4-1.06-8.01-1.52-12.03-.01-.09.57-.26,1.67-.72Z"/>
      <path class="cls-1" d="M144.88,216.82c2.11-2.92,3.95-5.53,5.89-8.06.24-.31,1.06-.35,1.54-.23.24.06.57.95.42,1.15-1.89,2.6-3.85,5.15-5.85,7.66-.11.13-.8-.2-2-.53Z"/>
      <path class="cls-1" d="M200.39,220.86c-3-.39-7.17-4.62-7.13-6.18.01-.38.37-1.03.63-1.06.5-.06,1.25.06,1.52.4,1.54,1.98,2.97,4.05,4.98,6.84Z"/>
      <path class="cls-1" d="M205.53,191.94c1.67-1.99,3.15-3.81,4.76-5.53.12-.13,1.56.5,1.64.92.43,2.13-3.4,5.09-6.41,4.61Z"/>
      <path class="cls-1" d="M146.74,189.66c-1.51.52-2.28,1.04-2.57.84-1.29-.86-2.44-1.93-3.64-2.93.46-.37,1.15-1.15,1.34-1.05,1.44.79,2.79,1.76,4.86,3.13Z"/>
    </g>
  </g>
</svg>