<?xml version="1.0" encoding="UTF-8"?>
<svg id="Capa_2" xmlns="http://www.w3.org/2000/svg" viewBox="0 0 386.91 386.91">
  <defs>
    <style>
      .cls-1 {
        fill: #30c;
      }

      .cls-2 {
        fill: none;
        stroke: #30c;
        stroke-miterlimit: 10;
        stroke-width: 3px;
      }
    </style>
  </defs>
  <g id="Capa_1-2" data-name="Capa_1">
    <g>
      <path class="cls-1" d="M112.1,151.23h10.84l5.63,16.26,5.63-16.26h10.67l-11.75,29.16h-9.27l-11.75-29.16Z"/>
      <path class="cls-1" d="M146.14,151.23h9.68v28.96h-9.68v-28.96Z"/>
      <path class="cls-1" d="M156.81,175.85l5.17-6.16c3.14,2.4,6.74,3.39,10.14,3.39,1.74,0,2.48-.46,2.48-1.24v-.08c0-.83-.91-1.28-4.01-1.9-6.49-1.32-12.2-3.19-12.2-9.31v-.08c0-5.5,4.3-9.76,12.29-9.76,5.58,0,9.72,1.32,13.07,3.97l-4.71,6.54c-2.73-1.99-6-2.85-8.69-2.85-1.45,0-2.11.5-2.11,1.2v.08c0,.79.79,1.28,3.85,1.86,7.4,1.36,12.37,3.52,12.37,9.35v.08c0,6.08-5.01,9.8-12.78,9.8-5.87,0-11.17-1.66-14.85-4.88Z"/>
      <path class="cls-1" d="M186.43,167.2v-15.97h9.85v15.84c0,3.6,1.86,5.13,4.47,5.13s4.47-1.41,4.47-4.92v-16.05h9.85v15.76c0,9.89-5.75,13.78-14.4,13.78s-14.23-3.97-14.23-13.57Z"/>
      <path class="cls-1" d="M226.96,151.03h9.6l12.2,29.16h-10.51l-1.53-3.89h-10.13l-1.49,3.89h-10.34l12.2-29.16ZM234.32,169.43l-2.65-7.03-2.65,7.03h5.29Z"/>
      <path class="cls-1" d="M249.95,151.23h9.68v20.68h13.61v8.27h-23.29v-28.96Z"/>
      <path class="cls-1" d="M113.51,200.86h11.09c11.5,0,17.25,5.67,17.25,14.23v.08c0,8.56-5.87,14.64-17.58,14.64h-10.76v-28.96ZM123.19,209.3v12.08h1.61c4.43,0,7.28-1.82,7.28-6v-.08c0-4.18-2.85-6-7.28-6h-1.61Z"/>
      <path class="cls-1" d="M144.49,200.86h24.7v7.94h-15.18v2.94h14.15v6.99h-14.15v3.14h15.39v7.94h-24.9v-28.96Z"/>
      <path class="cls-1" d="M169.59,225.48l5.17-6.16c3.14,2.4,6.74,3.39,10.13,3.39,1.74,0,2.48-.46,2.48-1.24v-.08c0-.83-.91-1.28-4.01-1.9-6.49-1.32-12.2-3.19-12.2-9.31v-.08c0-5.5,4.3-9.76,12.29-9.76,5.58,0,9.72,1.32,13.07,3.97l-4.71,6.54c-2.73-1.99-6-2.85-8.69-2.85-1.45,0-2.11.5-2.11,1.2v.08c0,.79.79,1.28,3.85,1.86,7.4,1.36,12.37,3.52,12.37,9.35v.08c0,6.08-5.01,9.8-12.78,9.8-5.87,0-11.17-1.66-14.85-4.88Z"/>
      <path class="cls-1" d="M199.54,200.86h9.68v28.96h-9.68v-28.96Z"/>
      <path class="cls-1" d="M211.95,215.43v-.08c0-8.65,6.83-15.1,15.97-15.1,4.96,0,8.98,1.65,12.12,4.38l-5.42,6.54c-1.9-1.61-4.01-2.52-6.41-2.52-3.76,0-6.5,2.9-6.5,6.83v.08c0,4.1,2.85,6.91,6.91,6.91,1.66,0,2.57-.25,3.31-.66v-2.9h-4.96v-6.21h14.02v13.4c-3.14,2.56-7.53,4.34-12.78,4.34-9.02,0-16.26-6.04-16.26-15.02Z"/>
      <path class="cls-1" d="M243.79,200.86h9.06l10.3,12.78v-12.78h9.6v28.96h-8.6l-10.75-13.36v13.36h-9.6v-28.96Z"/>
    </g>
    <rect class="cls-2" x="1.5" y="1.5" width="383.91" height="383.91"/>
  </g>
</svg>