<?xml version="1.0" encoding="UTF-8"?>
<svg id="Capa_2" xmlns="http://www.w3.org/2000/svg" viewBox="0 0 390.39 6.59">
  <defs>
    <style>
      .cls-1 {
        fill: #30c;
      }
    </style>
  </defs>
  <g id="Capa_1-2" data-name="Capa_1">
    <path class="cls-1" d="M1.45,4.32c51.18.59,102.36,1.2,153.54,1.76,25.63.28,51.26.56,76.89.51,25.08-.05,50.1-.76,75.15-2,27.26-1.34,54.69-2.69,81.93-.22,1.92.17,1.91-2.83,0-3-24.3-2.21-48.76-1.35-73.1-.21-24.92,1.17-49.81,2.23-74.76,2.39-51.06.32-102.13-.65-153.19-1.24C59.09,1.98,30.27,1.65,1.45,1.32c-1.93-.02-1.93,2.98,0,3h0Z"/>
  </g>
</svg>