<?xml version="1.0" encoding="UTF-8"?>
<svg id="Capa_2" xmlns="http://www.w3.org/2000/svg" viewBox="0 0 144.04 31.27">
  <defs>
    <style>
      .cls-1 {
        fill: #30c;
      }
    </style>
  </defs>
  <g id="Capa_1-2" data-name="Capa_1">
    <path class="cls-1" d="M4.49,13.96c-1.52-.96-2.83-1.78-4.26-2.68.45-.07.85-.12,1.37-.2-.45-.68-.88-1.33-1.59-2.4,1.79,0,3.15,0,4.86,0-1.44-.76-1.07-1.8-.76-2.71-.71-.72-1.31-1.34-2.15-2.2.83-.17,1.48-.39,2.14-.43,1.05-.07,2.11.31,2.86-1.04.27-.49,1.6-.49,2.45-.53.7-.03,1.41.21,2.22.34.13-.6.26-1.19.43-1.97,1.48.84,2.77.23,4.14.05,2.35-.3,4.78-.2,7.16-.03,3.39.25,6.76.78,10.14,1.07,2.6.22,5.22.22,7.84.35.71.04,1.51,0,2.1.33.58.32.83.17,1.39-.01.87-.29,2.01-.71,2.7.62.12.23,1.05.27,1.44.08,1.2-.6,4.1-.8,4.94.12.89.98,2.18.96,2.76.64,1.18-.64,2.14-.23,3.2-.08,2.49.35,5.06.46,7.45,1.16,1.93.56,3.92.81,5.86,1.28,1.75.42,3.75-.26,5.5.79,4.29-1.17,8.08,1,12.03,1.9,10.19,2.32,19.9,6.3,30.02,8.93,4.85,1.26,9.65,2.76,14.4,4.37,2.69.91,5.24,2.26,8.08,3.51-1.02.88-.71,1.81-.2,2.69.07.12.53,0,.83,0,.52,2.31.23,2.79-2.19,3.03-1.93.19-3.88.29-5.82.32-.68.01-1.36-.31-2.04-.49-.36-.09-.8-.37-1.05-.25-1.36.63-2.66.11-3.99-.01-2.92-.27-5.86-.36-8.77-.68-4.57-.51-9.16-.93-13.65-1.86-1.47-.31-2.8-.36-4.26-.4-2.66-.06-5.51-.03-7.92-.96-2.01-.77-3.69-.38-5.58-.39-2.87-.02-5.77.26-8.67-.33-1.55-.31-3.25.12-4.88.24-.87.06-1.75.28-2.6.22-6.1-.44-12.22-.57-18.32-1.01-1.82-.13-3.66.12-5.49.17-2.53.07-5.06.08-7.58.19-2.45.11-4.89.31-7.48.49,0-.38.01-.66.02-1.12-1.01.03-2.14-.59-2.98.75-.17.27-.83.31-1.26.3-2.55-.04-5.09-.12-7.64-.2-2.45-.08-4.9-.16-7.35-.26-.29-.01-.58-.12-1.4-.3.99-.36,1.49-.54,2.04-.74-3.23-.89-6.3-1.75-9.54-2.64.32-.91.55-1.54.82-2.29-.75-.28-1.41-.52-2.29-.84,1.27-1.62-1.93-3.22.53-4.93Z"/>
  </g>
</svg>