<?xml version="1.0" encoding="UTF-8"?>
<svg xmlns="http://www.w3.org/2000/svg" version="1.1" viewBox="0 0 64 64">
  <defs>
    <style>
      .cls-1 {
        fill: #dfd8ce;
      }
    </style>
  </defs>
  <!-- Generator: Adobe Illustrator 28.7.1, SVG Export Plug-In . SVG Version: 1.2.0 Build 142)  -->
  <g>
    <g id="Capa_1">
      <g id="Capa_1-2" data-name="Capa_1">
        <path class="cls-1" d="M56,6.6H8C3.6,6.6,0,10,0,14.4v28.3c0,4.4,3.6,8,8,8h43.2c.3,0,.5,0,.8.3l12.1,8.9V14.4c0-4.4-3.5-7.8-8-7.8ZM19.8,26.1c0,1.7-1.4,3.1-3.1,3.1s-3.1-1.4-3.1-3.1v-2.4c0-1.7,1.4-3.1,3.1-3.1s3.1,1.4,3.1,3.1v2.4ZM32,43.3c-5.8,0-12-1.5-12-5.1s.5-1.3,1.3-1.3,1.3.5,1.3,1.3,3.2,2.6,9.4,2.6,9.5-1.8,9.5-2.6.5-1.3,1.3-1.3,1.3.5,1.3,1.3c0,3.6-6.3,5.1-12.1,5.1ZM50.5,26.1c0,1.7-1.4,3.1-3.1,3.1s-3.1-1.4-3.1-3.1v-2.4c0-1.7,1.4-3.1,3.1-3.1s3.1,1.4,3.1,3.1v2.4Z"/>
      </g>
    </g>
  </g>
</svg>