<?xml version="1.0" encoding="UTF-8"?>
<svg id="Capa_2" xmlns="http://www.w3.org/2000/svg" viewBox="0 0 970.46 956.66">
  <defs>
    <style>
      .cls-1 {
        fill: #30c;
      }
    </style>
  </defs>
  <g id="Capa_1-2" data-name="Capa_1">
    <path class="cls-1" d="M452.19,78.86c1.2-.41,1.98-.68,2.98-1.02-5.03-4.41-9.63-8.7-13.28-13.98-1.44-2.07-3.78-3.52-5.73-5.24-1.84-1.62-4.78-2.33-4.39-5.78.05-.41-1.55-1.11-2.47-1.49-.88-.37-2.01-.27-2.77-.77-6.17-4.08-12.4-8.08-18.35-12.46-3.05-2.25-6.16-4.68-7.68-8.44-.05-.12-.09-.29-.18-.34-4.17-2.1-4.01-6.91-6.55-10.09.69-.47,1.21-.83,2-1.37-.45-.68-.91-1.37-1.36-2.06.1-2.05,1.67-1.75,3.62-1.7-2.58-1.54-.41-3.06-.92-4.63,2.79.67,5.44,1.31,8.08,1.95-1.85-3.54-6.5-1.63-8.46-5.46,1.56-.26,2.88-.48,4.2-.69,0-.13,0-.26,0-.39-1.21-.17-2.42-.34-3.75-.52,1.57-2.12,3.91-.67,5.81-1.44-.36-.5-.71-.96-1.17-1.59,5.11-1.97,10.19-1.6,15.22-.15,5.75,1.66,11.42,3.58,17.15,5.31,1.62.49,3.32.7,5.2,1.08,0-.05-.24.78-.13.83,2.35,1.04,3.87,4.61,7.35,2.41.42-.27,1.51.29,2.16.67,2.52,1.47,5.72,1.9,7.33,4.83.26.47,1.19,1.01,1.61.88,3.51-1.14,5,1.83,7.16,3.4.93.67,1.72,1.69,2.74,2.07,6.36,2.34,11.63,6.23,16.45,10.92,5.88,5.71,11.93,11.24,17.85,16.91,4.41,4.22,8.95,8.32,13.03,12.84,5.37,5.96,10.92,11.71,15.1,18.78,5.99,10.15,11.03,20.61,14.4,31.87.7,2.34,1.04,4.82,1.33,7.26,1.3,11.05,1.47,22.04-1.88,32.85-.84,2.7-1.15,5.57-1.68,8.37-1.3,6.86-2.4,13.76-3.96,20.56-.84,3.64-2.41,7.12-3.76,10.62-1.17,3.02-2.45,5.99-3.77,8.95-1.31,2.94-2.74,5.84-4.12,8.76-1.05,2.24-2.44,4.05-4.47,5.69-1.98,1.6-2.94,4.4-4.57,6.5-3.35,4.3-6.67,8.64-10.33,12.67-2.96,3.26-6.33,6.16-9.67,9.05-1.55,1.34-3.34,2.53-5.22,3.31-2.01.84-3.66,1.48-4.98,3.62-1.09,1.77-3.67,2.89-5.81,3.71-7.92,3.06-15.26,7.2-22.53,11.52-1.88,1.12-3.99,1.97-6.11,2.55-8.03,2.2-16.05,4.73-24.46,4.75-4.98.01-10.11,0-14.6-2.89-.53-.34-1.26-.71-1.82-.61-5.1.88-8.43-3.01-12.58-4.65-2.98-1.18-5.91-2.74-8.5-4.63-2.46-1.8-4.72-4.04-6.52-6.49-1.29-1.75-2.11-3.94-2.31-6.36-.18-2.23-1.45-4.35-1.88-6.58-.83-4.26-.65-8.57-.4-13.1h3.89c-.07-.7-.14-1.43-.22-2.22.59-.07.97-.2,1.32-.15,2.94.44,5.78-.04,8.71-.37,5.7-.64,11.3-2.55,17.14-1.7.13.02.27.03.39-.01,5.73-2.16,12-1.87,17.72-3.71,3.48-1.12,6.84-3.35,9.61-5.81,6.93-6.14,12.89-13.27,17.91-21.04,5.15-7.97,9.97-16.19,14.42-24.57,1.98-3.72,2.87-8.07,3.97-12.21,2.15-8.13,3.15-16.45,1.15-24.7-1.43-5.91-3.6-11.67-5.72-17.39-4.72-12.71-10.4-24.98-17.96-36.67ZM435.56,270.84c-5.32-1.45-11.61-1.84-13.79-1.13,1.08.58,2.14,1.63,3.21,1.64,3.53.03,7.05-.31,10.58-.51ZM439.88,269.37l.49.85c1.81-.62,3.61-1.23,5.42-1.85-.08-.23-.16-.47-.24-.7-1.89.57-3.78,1.13-5.67,1.7ZM471.89,172.89q-1.73,1.84-1.6,4.65c.73-2.12,1.16-3.38,1.6-4.65ZM543.97,121.48c.57-1.23.98-2.46-.91-3.82.41,1.74.66,2.78.91,3.82ZM414.95,270.74c.07-.2.13-.4.2-.59-.98-.36-1.97-.73-2.95-1.09-.09.26-.17.51-.26.77,1.01.3,2.01.61,3.02.91Z"/>
    <path class="cls-1" d="M938.32,178.29c-4.5,5.26-9.73,9.75-15.51,13.49-7.86,5.08-16.07,9.59-24.85,12.95-2.75,1.05-5.51,2.16-8.35,2.92-1.94.52-4.04.7-6.06.64-5.59-.17-11.12-.25-16.49,1.72-3.97,1.45-7.94-.2-11.92-.31-5.02-.14-9.61-2.04-14.14-4.04-4.64-2.05-9.52-3.66-13.89-6.17-6.51-3.74-12.73-8-18.94-12.25-4.39-3.01-8.59-6.3-12.77-9.59-1.49-1.17-2.68-2.72-3.81-4.35,10.17,8.27,20.93,15.64,32.49,21.85-1.68-1.1-3.45-2.1-5.04-3.32-8.04-6.22-16.1-12.4-24-18.79-3.16-2.55-5.9-5.61-9.18-8.77.22,3.57,4.59,3.79,4.36,7.21-.52-.1-1.02-.05-1.19-.26-2.64-3.29-6.39-5.74-7.67-10.07-.11-.36-.3-.73-.54-1.01-4.18-4.95-8.14-10.1-12.62-14.77-7.19-7.5-11.29-16.71-15.2-26.03-3.07-7.32-5.87-14.76-8.47-22.26-1.48-4.28-2.35-8.78-3.45-13.19-1.41-5.68-2.85-11.36-4.12-17.07-1.46-6.59-2.76-13.22-4.19-20.15.93.24,1.41.36,1.89.48-.04-1.84-.84-4.47.03-5.25,2.03-1.82.75-3.59.85-5.3q3.11-3.12,8.42.6c.34-2.9.68-5.83,4.76-5.93.97,1.58,2.02,3.27,3.51,5.7.28-1.32.69-2.07.53-2.69-.48-1.89-1.24-3.71-1.78-5.59-.35-1.21-.2-2.59,1.22-2.77.64-.08,1.69.96,2.11,1.74.86,1.58,1.42,3.31,2.07,4.89,1.49.12,2.74.23,4.2.35-1.22-2.69-2.39-5.24-3.57-7.83.65-.34,1.05-.73,1.29-.65,1.03.34,5.11,4.61,5.3,5.61.46,2.41,1.65,4.27,3.95,5.63-.26-.91-.48-1.67-.7-2.44.24-.13.48-.25.72-.38,1.51,2.89,2.99,5.8,4.53,8.68,1.39,2.6,2.76,5.21,4.25,7.75,7.23,12.28,17.17,22.29,27.06,32.35,3.19,3.24,6.17,6.75,9.66,9.64,8.21,6.79,16.46,13.49,25.88,18.72,7.96,4.42,15.36,9.85,22.97,14.9,5.55,3.69,11.4,6.69,17.65,9.06,8.77,3.33,17.93,4.6,27.13,4.91,6.43.22,12.92-1.02,19.37-1.78,1.5-.18,2.91-1.08,4.36-1.62,1.41-.53,2.59-2.5,4.4-.7.09.09.55-.04.71-.19,2.92-2.73,6.96-2.24,10.38-3.81,1.53,1.7,2.95,3.27,4.8,5.32-.02.25-.12,1.24-.23,2.35.47.08.85.26,1.16.18,2.15-.53,2.91.58,2.87,2.48-.06,2.73-.12,5.47-.39,8.18-.1.98-.88,1.92.86,1.95-.11.42-.14.89-.37,1.23-.17.24-.84.25-.89.45q-1.45,6.11-5.37,10.21c-.61.64-1.22,1.44-1.46,2.27-.86,2.89-2.65,4.69-5.43,5.9-1.43.63-2.43,2.2-3.71,3.23-4.52,3.64-9.07,7.22-13.75,10.94,6,1.66,7.91-3.66,11.58-5.74.99-.56,1.73-1.55,2.59-2.34.04.33.07.65.11.98ZM832.71,116.02c1.74,1.52,3.05,3.75,6.24,3.9-1.61-2.74-4-3.2-6.24-3.9ZM873.82,204.15c-.03-.35-.06-.7-.1-1.05-1.47.15-2.94.3-4.41.45.03.28.05.57.08.85,1.48-.08,2.95-.17,4.43-.25ZM746.25,33.02c.53,1.23.85,1.96,1.26,2.91.76-.61,1.31-1.05,1.99-1.6-1.02-.41-1.87-.75-3.25-1.31ZM878.18,137.36c-.05.13-.09.25-.14.38.64.31,1.25.67,1.92.89.34.11.76-.03,1.14-.05,0-.19.02-.38.03-.58-.98-.22-1.96-.43-2.94-.65ZM824.95,109.56c-.15.16-.3.32-.45.48.63.72,1.27,1.45,1.9,2.17.26-.26.51-.52.77-.79-.74-.62-1.48-1.24-2.22-1.86ZM899.2,200.96c-.11-.23-.21-.47-.32-.7-.71.33-1.42.66-2.12.99.07.16.14.33.21.49.75-.26,1.49-.51,2.24-.77Z"/>
    <path class="cls-1" d="M832.22,670.74c.37,1.04.93,2.06,1.07,3.14.83,6.23,2.52,12.16,5.07,17.93.89,2.02.55,4.58.8,7.24-.89-.42-1.52-.72-2.28-1.07.06.41.07.76.17,1.08.5,1.71,1.84,3.72,1.34,5.05-.95,2.57-1.18,5.21-1.92,7.76-.15.53-1.62.91-2.49.93-.69.02-1.39-.61-2.37-1.09-.2,1.2-.37,2.25-.54,3.29-2.93-.23-5.74-.32-7.95-2.48-.38-.37-1.24-.62-1.73-.46-2.93.96-5.2-.24-7.33-2.02-2.8-2.33-5.7-4.56-8.38-7.02-5.49-5.05-10.52-10.5-12.83-17.83-.58-1.84-.93-3.79-1.14-5.72-1.28-11.66-1.82-23.33.12-34.99.51-3.07.65-6.21,1.34-9.23,1.58-6.87,3.37-13.69,5.16-20.5.35-1.32,1.1-2.53,1.67-3.78.27.11.55.22.82.33-.51,1.18-1.03,2.36-1.53,3.54-.37,1.63-.76,3.25-1.14,4.87,1.36-1.47,2.34-3.04,1.1-4.88,2.9-.92,2.56-3.41,2.75-5.65.9-.77,2.66-1.14,1.21-3.24-.42,1.26-.77,2.29-1.11,3.32-1.1-.14-1.2-.8-.86-1.67,1.34-3.39,2.64-6.79,4.04-10.15,1.09-2.63,2.18-5.26,3.47-7.79,3.78-7.44,7.95-14.54,14.3-20.25,4.71-4.24,8.43-9.56,13.6-13.37,2.7-1.99,5.59-3.74,8.43-5.55.54-.34,1.28-.75,1.82-.63,2.19.48,3.46-.82,4.88-2.09.63-.57,1.68-1.07,2.47-.99,4.53.49,8.86-1.4,13.4-.99,1.74.16,3.75-.12,5.31-.88,6.57-3.2,13.46-2.73,20.33-2.01,10.27,1.07,19.66,4.93,28.41,10.21,2.67,1.61,5.37,3.35,7.47,5.91,1.53,1.87,3.77,3.14,5.66,4.72.56.46,1.01,1.06,1.53,1.57,2.32,2.26,4.63,4.53,6.98,6.77,1.12,1.07,2.56,1.89,3.42,3.13,5.03,7.27,9.14,15.06,12.49,23.24.48,1.18.54,2.54.96,3.76.71,2.05,1.66,4.02,2.34,6.08.98,2.96,2.08,5.92,2.65,8.97,1.79,9.7,3.52,19.41,4.91,29.17.55,3.83.47,7.84.06,11.69-.4,3.67-1.59,7.26-2.48,10.88-1.11,4.55-2.83,9.03-3.26,13.63-.74,7.88-4.6,14.48-8.24,20.97-3.64,6.48-8.8,12.11-13.37,18.06-3.13,4.08-7.13,7.17-11.69,9.47-2.4,1.21-4.95,2.15-7.48,3.08-.48.18-1.22-.22-1.8-.46-2.73-1.13-5.5-2.19-8.16-3.48-2.43-1.18-4.89-2.45-6.12-5.71h4.07c-.75-1.15-1.34-1.96-1.82-2.84-.4-.73-.68-1.53-1.38-3.15,1.74.88,2.65,1.34,3.57,1.8.06-1.2.13-2.37.21-3.88,1.23.76,2.07,1.28,3.33,2.05,1.58-2.84,3.22-5.45,4.52-8.22,1.93-4.11,3.54-8.37,5.43-12.5,2.97-6.5,4.71-13.27,4.45-20.43-.2-5.59-.47-11.19-1.05-16.75-.3-2.81-1.21-5.58-2.12-8.28-1.73-5.17-3.58-10.3-5.53-15.39-3.87-10.12-8.42-19.98-14.93-28.65-3.11-4.14-7.16-7.88-11.5-10.72-3.82-2.5-8.53-3.92-13.05-5-2.89-.7-6.15-.1-9.02,1.42-6.81,3.62-12.09,8.96-16.91,14.83-4.15,5.06-6.91,10.95-9.96,16.66-3.12,5.84-5.92,11.87-8.67,17.9-2.8,6.14-3.35,12.75-3.76,19.39-.17,2.68-.82,5.33-1.23,7.97.24-2.54.46-5.05.68-7.57-.21-.01-.42-.03-.64-.04v7.58ZM894.15,546.21c-1.71-.18-3.42-.35-5.13-.53,0,.27-.01.55-.02.82,1.75-.12,3.5-.24,5.25-.36,3.11,2.62,10.32,5.01,12.94,4.05-4.51-1.39-8.76-2.7-13.05-3.99ZM808.15,596.77c1.11-2.19,2.21-4.38,3.32-6.57-2.77,1.42-3.68,3.7-3.32,6.57ZM942.44,577.53q-.72-2.44-3.15-3.56c1.35,1.53,2.25,2.55,3.15,3.56ZM960.49,610.35c.18-.15.36-.29.53-.44-.34-.85-.69-1.69-1.03-2.54-.22.09-.44.17-.66.26.39.9.77,1.81,1.16,2.71ZM794.89,661.94l-.37.02.14,2.16h.22v-2.18Z"/>
    <path class="cls-1" d="M572.08,868.82c-.18-.98-.39-1.96-.54-2.95-.15-.97-2.19-.39-1.55-2.16.41-1.13-.06-2.66,2.01-2.15.06.01.37-.64.42-1.01.14-1.02.18-2.05.32-3.06.42-3.06.72-6.14,1.35-9.16.97-4.67,2.65-9.33,3.18-13.93.62-5.33,2.78-9.81,4.8-14.44,2.07-4.75,4.5-9.37,7.11-13.85,1.62-2.78,3.78-5.27,5.87-7.74,1.39-1.64,2.94-2.87,5.36-3.46,2.77-.67,5.2-2.72,7.82-4.09,1.93-1.01,3.72-3.17,6.22-.99.18.16.9-.3,1.37-.49,1.59-.64,3.18-1.28,5.23-2.11.56,1.61,1.05,3.06,1.65,4.81.96-.19,2.13-.42,3.81-.75-.08,5.04,4.35,8.39,4.2,13.47-.51-.9-1.03-1.8-1.54-2.69-.27.09-.54.19-.81.28.34,1.25.3,2.88,1.09,3.68,2.17,2.2,2.43,4.82,2.02,7.47-1.06,6.7-1.27,13.49-2.66,20.18-1.81,8.71-1.38,17.55-.02,26.34.28,1.8.37,3.62.61,5.43.46,3.46,1.07,6.78,3.08,9.88,2.02,3.12,3.36,6.7,4.83,10.14,1.88,4.39,4.77,7.57,9.27,9.47,7.06,2.98,14.47,4.35,21.99,4.91,3.68.27,7.51-.62,11.2-1.32,7.02-1.33,14.01-2.83,20.97-4.41,4.39-.99,8.58-2.5,12.25-5.31,3.79-2.9,8.46-4.56,11.72-8.28.81-.92,2.24-1.28,3.35-1.95,2.22-1.35,5.07-2.05,5.61-5.22.02-.11.13-.26.23-.3,2.78-1.06,4.37-3.71,6.88-5.12q-1.24,1.98,1.05,2.39c-.37-.84-.7-1.6-1.03-2.35,2.1-1.48,4.19-2.95,6.41-4.51.31.29.73.68,1.38,1.3.39-.89,1.05-1.68,1.02-2.45-.13-3.51.5-4.51,3.46-5.51,1.18-.4,2.24-1.21,3.31-1.9,3.35-2.16,6.62-4.43,10.04-6.47.73-.43,1.93-.06,3.45-.06-.8,1.67-1.38,2.88-2.04,4.24,2.13.5,2.21-1.69,3.65-2.78.18.91.58,1.62.38,2.08-.62,1.42-1.53,2.71-2.21,4.1-.53,1.09-1.78,2.08-.69,3.53.05.06-.36.54-.61.75-.18.15-.59.11-.69.27-1.57,2.74-3.14,5.47-4.6,8.26-.25.48-.04,1.21-.04,2.09,4.39-1.05,3.32-6.32,6.6-7.92.61,3.05-1.42,6.48-5.03,8.48.12,4.53-1.61,8.6-3.89,12.25-4.4,7.07-8.82,14.19-14.01,20.67-4.85,6.06-10.69,11.33-16.12,16.92-3.67,3.77-8.04,6.52-12.69,8.97-7.14,3.75-13.99,8.07-21.2,11.65-8.61,4.29-17.29,8.58-26.31,11.87-6.53,2.39-13.65,3.35-20.76,2.6-5.7-.6-11.34-1.44-16.71-3.72-2.35-1-5.05-1.19-7.62-1.65-8.76-1.58-16.33-5.22-21.69-12.58-1.98-2.72-3.69-5.66-5.41-8.56-1.95-3.29-4.23-6.23-7.57-8.25-.86-.52-1.56-1.33-2.23-2.1-7.08-8.07-11.38-17.67-14.75-27.69-1.69-5.04-2.79-10.27-4.05-15.45-.29-1.18-1.06-2.67.94-3.44.31-.12,0-1.49.26-2.17.29-.77.9-1.42,1.38-2.12,0,2.9,0,5.8,0,8.69,2.14-2.6,1.97-5.46,1.49-8.33-.03-.16-1.05-.16-1.61-.24ZM577.84,888.9c.14,1.72.28,3.43.42,5.15.37-.07.73-.14,1.1-.21l-1.58-4.87c-.35-3.56-.56-7.14-1.75-10.65-.59.6-1.2,1.31-1.09,1.87.56,2.79,1.3,5.54,2.03,8.28.05.2.58.28.87.43ZM579.57,839.96c1.55-2.82,1.81-3.98,1.49-6.48q-1.87,3.81-1.49,6.48ZM718.69,924.51c.19.19.39.37.58.56.98-.8,1.95-1.6,2.93-2.4-.12-.15-.24-.3-.37-.44-1.05.76-2.1,1.52-3.15,2.29ZM582.18,900.58q-.04,2.1,1.55,3.8c-.7-1.72-1.13-2.76-1.55-3.8Z"/>
    <path class="cls-1" d="M783.47,264.21c-.52.37-1.01.73-1.49,1.08.95,1.44,1.67,2.52,2.46,3.71.36-.32.68-.61,1-.9,2.98,3.47,4.58,7.62,5.77,11.93,1.52,5.5,2.7,11.1,4.37,16.56,1.99,6.49,1.03,12.95.09,19.36-1.73,11.86-5.78,23-11.87,33.29-1.94,3.28-4.94,5.93-7.47,8.86-5.2,6.02-10.8,11.62-17.18,16.4-2.5,1.88-5.01,3.61-8.18,4.37-1.94.46-3.62,1.91-5.53,2.58-5.58,1.94-11.22,3.7-16.84,5.52-.37.12-.77.16-1.16.15-4.99-.04-9.59,1.86-14.38,2.8-3.26.64-6.77.77-10.06.32-3.81-.52-7.56-1.75-11.23-2.98-5.08-1.7-8.79-5.38-12.29-9.25-2.25-2.49-4.5-4.97-6.72-7.48-.5-.57-.84-1.27-1.24-1.92-1.01-1.6-1.65-3.72-3.08-4.72-3.47-2.43-4.86-5.96-6.28-9.61-.51-1.3-.95-2.83-1.92-3.72-4.1-3.77-5.77-8.79-6.58-13.88-.96-6-1.06-12.16-1.22-18.27-.11-4.28.07-8.59.52-12.84.57-5.38,3.02-10.21,5.3-15.02,4.23-8.94,8.41-17.94,14.17-26.03,3-4.22,6.37-8.2,9.88-12.02,3.86-4.21,8.06-8.12,12.13-12.13,2.38-2.34,5.17-3.75,8.53-4.39,3.28-.63,6.47-1.81,9.66-2.88,4.72-1.59,9.55-2.13,14.5-1.93,1.55.06,3.11-.01,4.66.07,4.81.24,8.96,2.45,13.08,4.61,2.56,1.34,5.01,2.5,8.04,2.63,2.27.1,4.66.85,6.7,1.89,8.63,4.35,15.71,10.62,21.65,18.19.62.79.96,1.81,1.32,2.77.36.95.6,1.95.87,2.88ZM773.7,254.52c-.87-.74-1.74-1.48-3.17-2.7.72,2.28,1.1,3.76,3.25,2.59-.96,2.23.6,3.19,2.1,4.38.68-.87,1.27-1.62,2.02-2.58-1.84,0-3.71.62-4.2-1.7ZM755.33,308.56c-.31-2.21-.18-5.75-1.4-8.72-1.51-3.67-3.82-7.16-6.41-10.18-3.26-3.8-7.16-7.05-10.82-10.51-.34-.32-.84-.53-1.31-.63-3.61-.72-7.26-1.28-10.84-2.12-3.72-.87-7.44-.54-10.73.92-8.91,3.96-18.71,6.7-24.08,16.1-2.31,4.04-5.56,7.6-7.43,11.8-1.71,3.83-2.19,8.22-3.14,12.38-.65,2.87-.18,6-2.05,8.6-.19.26-.41.8-.3.94,1.71,1.99.47,4.19.58,6.3.25,4.88-.04,9.87,3.48,14.02,2.35,2.77,4.21,5.95,6.54,8.74,1.48,1.78,3.18,3.78,5.21,4.6,2.73,1.09,4.91,2.81,7.25,4.4.43.29.85.66,1.33.77,6.06,1.38,12.08,3.17,18.37,1.14.91-.29,2.12-.27,3.02.08,2.62,1,4.74.2,6.75-1.43,2.43-1.97,4.86-3.94,7.3-5.89,5.88-4.69,9.67-10.87,12.36-17.74,4.07-10.42,5.7-21.34,6.34-33.57ZM658.33,332.07c-.59-1.85-.96-3-1.32-4.15-.38,1.32-1.6,2.76,1.32,4.15Z"/>
    <path class="cls-1" d="M572.06,650.71c-1.37,1.3-2.17.13-2.72-.82-.91-1.57-1.63-3.18-3.47-3.97-.51-.22-.95-.95-1.13-1.54-1.54-5.2-3.23-10.36-4.43-15.64-1.33-5.83-2.38-11.74-3.19-17.66-.41-2.98-.14-6.09.08-9.12.26-3.48.84-6.95,1.23-10.42.07-.61.45-1.75-1.01-1.19-.01-1.27-.36-2.64.01-3.78,2.78-8.49,4.51-17.31,8.4-25.47,4.56-9.56,9.67-18.7,16.67-26.72,1.57-1.8,3.1-3.65,3.9-6.16.57-1.77,2.59-3.13,4.08-4.54,2.53-2.39,5.02-4.86,7.78-6.97,3.8-2.9,7.78-5.56,11.77-8.2,3.47-2.29,7-4.51,10.6-6.58,3.14-1.81,6.32-3.6,9.67-4.94,1.36-.54,3.72-.48,4.72.38,1.73,1.48,2.9.11,4.23-.02.76.57,1.58.99,2.11,1.64.49.61.98,1.49.94,2.21-.2,3.27-.27,3.26,2.52,3.86,2.09,2.24-.81,3.62-1.11,5.46,2.5.81,3.86-2.76,6.34-1.13.58,1.78-.85,2.6-1.98,3.26-2.09,1.23-3.19,2.91-3.3,5.43,2.65-.59,3.86-4.13,7.62-3.58-.71,1.21-1.13,2.24-1.81,3.06-6.5,7.72-13.02,15.43-19.59,23.1-4.7,5.48-8.5,11.52-11.75,17.94-1.52,3.01-2.94,6.12-5.97,8.06-.51.33-.94.96-1.15,1.55-2.24,6.38-5.77,12.14-8.7,18.19-3.41,7.06-4.33,14.67-4.75,22.4-.28,5.06-.61,10.14-1.31,15.16-1,7.18-2.34,14.3-3.44,20.81-1.35,1.97-4.31.25-4.34,3.14-.18-.45-.35-.9-.69-1.76-.88,1.21-1.62,2.23-2.35,3.23-.62-.56-1.4-1.25-2.56-2.3v3.52c-.45.03-.81.13-1.12.05-1.74-.42-3.53-.74-5.19-1.38-2.36-.91-3.9.75-5.73,1.52.11-1.44-.37-2.56-1.96-3.71-.03,2.06.27,3.28,2.05,3.62Z"/>
    <path class="cls-1" d="M169.51,537.15c-1.14-1.7-1.78-2.65-2.37-3.54-.31.07-.49.06-.55.13-3.97,5.21-9.22,2.84-14.14,2.4-1.02-.09-2.35-.9-2.96-.5-2.58,1.67-4.71.54-6.97-.55-.37-.18-.91.01-1.95.06.75.64,1.06.91,1.39,1.2-.14.16-.26.43-.4.44-2.96.22-5.95.23-8.88.66-3.26.48-6.44-1.32-9.79-.03-.89.34-2.47-1.12-3.97-1.87-.9,2.62-3.05,2.43-5.34,2.34-4.23-.16-8.46-.01-12.69-.11-1.38-.03-2.83-.23-4.11-.73-2.83-1.1-4.22-.64-7.24.8-1.58.76-4.63.8-5.67-.21-1.45-1.42-2.23-1.43-3.32-.3-1,1.04-2.29.87-2.68.11-1.12-2.19-2.6-1.25-3.74-.52-2.39,1.51-4.81,1.56-7.44,1.04-2.35-.47-4.8-.18-7.03-1.61-.92-.59-2.78-.56-3.76,0-3,1.67-5.49.57-8.5-.12-4.71-1.08-7.61-3.27-8.75-7.98.62-.04,1.44-.08,2.16-.13-.05-1.07-.1-2.05-.15-3.17-1.12-.21-2.49-.13-3.35-.75-.48-.34-.12-1.85-.14-3.09-.22-.02-.84-.06-1.39-.1-.24-1.53-.48-3.05-.74-4.7,1.15-1.06,3.11-1.37,3.52-3.61.18-.99,1.72-1.96,2.84-2.52,3.06-1.52,6.11-3.28,9.38-4.08,4.05-.99,8.06-3.17,12.48-1.65,1.95-1.5,4.23-1.48,6.54-1.49,5.69-.02,11.38-.1,17.07-.17,8.31-.1,16.63-.45,24.93-.25,13.91.33,27.82.86,41.71,1.6,6.36.34,12.69,1.32,19.01,2.13,7.35.95,14.72,1.86,22.02,3.11,5.88,1.01,11.69,2.5,17.54,3.78.23,1.39.43,2.58.68,4.04-2.83-.25-5.6-.5-8.38-.75-.04.18-.07.35-.11.53,3.48,1.21,6.96,2.43,10.91,3.8-1.01.39-1.7.66-2.68,1.05.94,3.29-.99,5.25-4.25,6.67,1.02.75,1.7,1.25,2.72,2-1.77.61-3.32,1.15-4.86,1.68-.47.16-1.2.21-1.35.52-1.19,2.58-3.39,1.92-5.43,1.8-3.75-.22-7.51-.44-11.26-.66-.14,1.22-.58,2.55-1.87,2.17-3.29-.98-6.62,1.59-9.86-.3-.37-.22-1.02-.09-1.51.03-1.81.44-3.6.94-5.34,1.4ZM99.92,536.42c0,.07,0,.14,0,.21h4.48c0-.07,0-.14.01-.21h-4.48Z"/>
    <path class="cls-1" d="M358.15,459.1c-1.53-.37-2.51-.95-3.19-.7-4.72,1.74-9.38,3.67-14.07,5.48-1.3.5-1.32.41-4.87-.78-.34-.11-.83-.11-1.13.06-1.97,1.15-3.64-.26-5.13-.94-1.62-.74-2.81-2.44-4.3-3.84.62-.22,1.08-.38,1.54-.54-.11-.2-.16-.5-.33-.59-1.76-1.01-3.51-2.03-5.31-2.97-1.37-.71-2.8-1.28-4.19-1.96-1.16-.57-2.26-1.25-3.42-1.81-1.7-.82-3.45-1.51-5.13-2.37-.77-.4-1.43-1.03-2.11-1.6-3.3-2.75-5.64-6.1-7.57-10.01-2.25-4.56-3.28-9.24-3.87-14.17-.97-8.24-.29-16.26,2.22-24.2,1.88-5.93,5.56-10.48,10-14.54,2.95-2.7,5.98-5.34,9.15-7.77,2.97-2.27,6.17-4.2,9.94-4.98.98-.2,2.15-.54,2.77-1.22,1.73-1.89,3.94-2.56,6.28-2.77,4.75-.43,9.44-.93,14.32-.68,13.1.67,20.37,8.87,27.01,18.61,2.94,4.32,2.44,9.3,3.72,13.92.56,2.03,0,4.34.31,6.48.24,1.72,1.09,3.2,1.11,5.14.08,7.13-1.79,13.86-3.43,20.67-1.02,4.23-3.07,7.93-5.12,11.71-2.48,4.57-5.86,8.17-9.91,11.32-2.02,1.57-3.74,3.54-5.31,5.05ZM331.13,442.56c1.82-.24,3.36-.83,4.74-.55,7.24,1.45,15.11-3.6,16.65-10.89.48-2.27.98-4.54,1.52-6.8,1.7-7.14,1.12-14.19-.87-21.16-.3-1.04-1.05-2.19-1.93-2.79-2.12-1.46-4.35-2.83-6.71-3.86-4.24-1.84-8.5-3.35-13.3-3.71-2.79-.21-4.69.36-6.69,1.77-1.69,1.19-3.35,2.44-4.97,3.73-1.65,1.32-4,2.15-3.75,4.93-3.97,4.06-2.17,9.69-3.78,14.42-.43,1.27-.32,2.9-.78,4.4-.43,1.39-.11,3.07.11,4.59.58,3.92,4.04,6.9,3.75,11.15-.03.42.43.95.79,1.29,1.13,1.07,2.28,2.14,3.53,3.05.57.41,1.39.57,2.12.65,1.36.15,2.73.26,4.09.21,1.3-.05,2.53.52,3.59-1.45,1.13-2.1,1.38.47,1.89,1.01Z"/>
    <path class="cls-1" d="M337.29,165.06c.36,1.18.61,2.01,1,3.28-1.97-.82-1.66-1.81-1-3.28Z"/>
    <g>
      <path class="cls-1" d="M279.55,662.39c3.85,1.1,7.71,2.7,11.7-.45,1.52,3.97,4.62,1.53,7.3,1.36-1.01-.31-2.01-.61-3.76-1.15,2.57,0,4.37-.03,6.17.01.99.02,2.18-.19,2.31,1.37.02.19.3.52.47.53,3.39.18,6.75,1.94,10.2.13.85-.44,1.95-.41,2.98-.61-.03.35,0,.51-.06.57-.08.08-.24.08-.36.13-.31.13-.61.26-1.31.57,3.95,1.11,7.44,2.1,11.1.49.51-.22,1.24.07,1.87.12-.15.49-1.18,1.14.4,1.22,1.27.06,2.37,1.17,3.69-.45.52-.63,2.47-.1,3.75-.1.03.17.09.31.06.34-.09.08-.33.15-.32.17.12.49.27.97.42,1.46,2.63-.95,5.43,2.2,8.06-.32.27-.26,1.23.12,1.84.32,6.65,2.14,13.44,3.95,19.89,6.58,4.04,1.64,7.7,4.34,11.33,6.86,5.64,3.93,11.12,8.09,16.64,12.19,2.79,2.07,5.59,4.14,8.22,6.4,1.33,1.15,2.31,2.73,3.41,4.14,2.49,3.18,4.92,6.4,7.45,9.53.43.53,1.23.79,1.9,1.1.54.25,1.4.2,1.65.59.84,1.3,1.19,3.58,2.24,3.92,1.88.61,2.39,1.48,2.59,3.19.08.66.73,1.41,1.32,1.84,5.55,3.94,9.42,9.53,14.07,14.34,4.13,4.28,8.01,8.82,11.89,13.34.89,1.03,1.2,2.54,1.99,3.68,3.2,4.6,5.54,9.61,7.02,14.99,1.22,4.43.67,8.73-1.35,12.86-1.48,3.03-1.61,3.06-4.46,1-.68.73-1.36,1.46-2.06,2.21-3.09-2.03-5.86-1.54-8.61,1.16-4.77-2.96-9.6-5.96-14.55-9.03-.8.72-1.69,1.53-2.68,2.42-.97-1.52.88-3.51-1.71-4.47-1.77,3.63.38,6.93.84,10.5-2.35,2.91-4.8,5.92-7.21,8.96-.31.39-.44.93-.6,1.42-.16.49-.11,1.17-.42,1.48-2.04,2.01-4.16,3.94-6.27,5.87-.04.03-.36-.25-.55-.39-1.44-.43-2.89-.87-3.67,1.98,1.59-.86,2.63-1.42,3.68-1.98-1.66,3.43-4.41,5.9-7.32,8.17-3.33,2.6-6.83,4.97-10.14,7.58-1.18.93-2.49,2.12-2.94,3.47-.63,1.85-1.88,2.7-3.35,3.55-2.92,1.69-5.79,3.45-8.75,5.08-2.26,1.25-4.63,2.28-6.9,3.5-1.56.84-3.03,1.85-4.55,2.75-1.67.99-3.28,2.14-5.05,2.88-6,2.5-11.05,6.68-16.94,9.33-2.76,1.24-4.76,3.47-7.26,4.93-5.36,3.12-10.89,5.85-17.01,7.41-7.06,1.8-13.97,4.2-20.9,6.45-9.86,3.21-19.92,4.8-30.31,4.33-4.02-.18-8.06.1-12.09.16-1.08.02-2.17,0-3.25-.38,10.29-.71,20.63-.16,30.89-1.2.02-.29.04-.57.06-.86-1.9-.09-3.81-.25-5.71-.25-8.32.01-16.64.03-24.96.14-5.3.07-10.62.69-15.89.35-6.05-.4-12.08-1.44-18.07-2.48-6.78-1.18-13.55-2.46-20.22-4.12-5.39-1.34-10.63-3.27-15.91-5.02-2.21-.74-4.3-1.83-6.51-2.55-7.58-2.45-14.13-7.1-21.54-9.89-.83-.31-1.74-.43-2.61-.64l.16.15c-1.11-.8-2.14-1.73-3.34-2.37-2.63-1.4-5.32-2.67-8.01-3.96-1.73-.83-3.48-1.6-5.23-2.4l.16.09c-2.74-1.63-5.44-3.35-8.24-4.87-1.66-.91-3.48-1.52-5.23-2.26,0,0,.16.09.16.09-1.22-.54-2.45-1.09-3.67-1.63-.48-.5-.96-1.01-1.44-1.51-3.03-1.99-6.06-3.97-9.1-5.96-.1-.1-.2-.21-.3-.31-2.25-1.59-4.5-3.19-6.75-4.78,0,0,.11.09.11.09-1.66-1.4-3.26-2.88-5.01-4.18-.86-.64-1.97-.93-2.97-1.38l.13.06c-.9-1.02-1.72-2.14-2.72-3.04-2.96-2.66-5.04-6.21-8.8-8.12-1.12-.57-2.12-2.52-2.11-3.83.01-1.22-.36-1.74-.99-2.57-1.23-1.62-2.45-1.68-4.12-.22-.34-.65-.47-1.45-.9-1.66-3.96-1.95-3.89-6.11-5.24-9.47-.33-.83-.43-2.54-.05-2.74,2.05-1.1.38-2.17.22-3.23.76.57,1.5,1.13,2.25,1.68-.41-1.04-.34-2.93-2.19-1.62-.49-.58-.98-1.17-1.48-1.77-7.18.34-14.45.84-21.72.99-5.55.11-11.11-.31-16.67-.35-2.32-.02-4.63.49-6.95.48-2.85,0-5.7-.21-8.55-.46-3.18-.28-3.41-.92-1.33-3.77-.36-.28-.7-.62-1.1-.83-.43-.23-.92-.33-1.39-.49.27-.64.46-1.08.77-1.82-2.41-.15-4.69-.3-6.97-.44-.1-.19-.19-.38-.29-.58,1.3-.8,2.6-1.59,4.13-2.53-1.88-1.37-3.9-.47-5.99-.92,1.64-3.1,6.4-3.59,6.73-8.32,4.68-1.3,9.76-2.74,14.84-4.13,3.1-.85,6.22-1.62,9.32-2.44,5.86-1.53,11.65-3.48,17.61-4.45,3.83-.63,7.01-2.74,10.76-3.41,3.7-.66,7.28-1.94,10.93-2.91,10.96-2.91,21.34-7.36,31.78-11.7,6.71-2.79,13.75-4.84,20.33-7.89,5.08-2.35,10.33-4.03,15.55-5.9,2-.72,4.33-1.03,5.47-3.39.24-.49,1.76-.85,2.38-.58,2.08.91,3.67,0,5.53-.68,2.18-.8,4.25-2.75,6.99-1.26.55.3,1.65-.57,2.53-.71,1.36-.21,2.74-.24,4.11-.37.72-.07,1.51-.04,2.15-.32,3.1-1.33,6.19-2.68,9.22-4.16.97-.47,1.72-1.39,2.95-2.43-1.57-.61-2.56-.99-3.85-1.49,4.39-3.14,8.64-5.61,13.43-7.33,9.78-3.51,19.43-7.38,29.12-11.12,3.95-1.53,7.88-2.87,12.09-3.71,4.93-.99,9.61-3.19,14.45-4.68,8.57-2.64,17.15-5.23,25.79-7.64,3.04-.85,6.25-1.08,9.39-1.6l-.07-.06ZM212.47,686.87c-.7-.31-1.4-.63-2.41-1.08-.2.8-.44,1.76-.77,3.09,1.54-.56,3.08-.19,3.13-2.06,1.49-.36,2.99-.72,4.48-1.07,1.09-.31,2.2-.58,3.28-.93.9-.29,1.76-.68,2.64-1.03q-3.81.27-5.85,2.01c-1.5.36-3,.72-4.5,1.08ZM181.54,830.4c1.41,2.91,1.41,2.9,4.66,2.76.49-.02,1.1-.05,1.44.21,2.1,1.59,5.25,1.56,6.6,4.36.18.38,1.33.73,1.68.51,1.79-1.1,3.22.2,4.78.53,2.42.51,4.79,1.26,7.22,1.65,2.71.42,5.25.96,7.14,3.2.37.44,1.1.67,1.7.81,3.24.74,6.49,1.43,9.8,2.14,1.04-.91,1.38-2.03,1.07-3.56-.84-4.21-1.47-8.46-2.23-12.69-.62-3.42-1.87-6.82-1.86-10.22.02-6.61.24-13.29,1.28-19.79.88-5.46,2.73-10.83,4.74-16.01,2.12-5.45,6.64-9.29,10.69-13.3,1.77-1.75,4.35-2.71,6.58-3.98,1.12-.64,2.3-1.18,3.45-1.78,1.49-.78,2.94-1.63,4.45-2.34,4.4-2.06,9.1-2.97,13.92-3.1,4.58-.12,9.21-1.88,13.74.36.31.16.77.03,1.16.03,5.96.06,11.61,1.77,16.91,4.14,8.91,3.99,17.13,9.3,25.01,15.04,4.18,3.04,7.17,7.14,8.25,12.41.62,3.03,1.43,6.03,2.1,9.05.47,2.14.91,4.3,1.25,6.46.44,2.79.53,5.66,1.2,8.39.99,4.07,1.51,8.1.78,12.26-.12.67.18,1.42.34,2.46,3.25-1.37,6.28-2.45,9.13-3.89,4.64-2.36,9.33-4.44,14.24-6.26,5.31-1.97,10.26-5.03,15.14-7.97,5.98-3.61,11.77-7.55,17.58-11.44,2.4-1.6,4.56-3.49,6.37-5.83,1.23-1.6,2.9-2.87,4.39-4.26,1.47-1.38,2.3-3.58,4.95-3.46.56.03,1.18-1.12,1.67-1.62-.57-.85-.96-1.43-1.45-2.17,3.7-2.03,4.48-6.87,9.1-7.56-.41-.51-.59-.91-.9-1.08-5.18-2.98-10.39-5.92-15.58-8.91-4.04-2.32-8.12-4.58-12.05-7.07-2.29-1.45-4.32-3.32-6.5-4.95-2.18-1.63-4.28-3.41-6.62-4.74-4.62-2.63-9.41-4.95-14.08-7.48-6.63-3.59-13.26-7.19-19.84-10.89-5.67-3.19-11.8-4.8-18.2-5.38-5.06-.46-10.15-.53-15.2-1.02-8.46-.81-16.89-.56-25.33.09-1.6.12-3.21.02-4.82.02-.01-.12-.02-.23-.03-.35,1.32-.16,2.63-.33,3.95-.49-2.25-.42-4.5-.51-6.61-.01-10.25,2.4-20.51,4.8-30.69,7.51-12.79,3.4-25.52,7.06-38.25,10.69-3.96,1.13-7.85,2.54-11.79,3.74-3.6,1.1-7.22,2.1-10.84,3.12-4.6,1.29-9.18,2.64-13.8,3.83-6.65,1.71-13.36,3.19-20,4.95-6.66,1.77-13.24,3.79-19.88,5.64-2.5.7-5.08,1.15-7.59,1.82-12.82,3.45-25.68,6.68-38.88,8.28-.93.11-1.84.46-3.74.95,3.71,2.41,6.59,4.27,9.46,6.14.43.28.84.62,1.24.95,2.09,1.73,4.14,3.5,6.26,5.19,2.75,2.2,5.47,4.32,8.79,5.82,3.12,1.41,5.67,4.05,8.56,6.04,2.07,1.43,4.55,2.38,6.33,4.08,1.42,1.35,2.88,1.95,4.64,2.52,2.44.8,4.74,2.04,7.07,3.16.8.38,1.48,1.03,2.29,1.41,3.34,1.59,7.03,2.54,9.59,5.51.22.26.7.29,1.05.44,4.87,2.09,9.75,4.18,14.61,6.3.45.19,1.12.59,1.14.92.19,2.84,2.3,2.44,4.07,2.41,2.07-.03,3.68.32,4.55,2.57.3.79,1.7,1.88,2.29,1.72,2.44-.67,4.18,1.63,6.36,1.03ZM201.7,691.5c-4.78.45-9.3,1.55-13.17,4.31.11.29.23.58.34.87,4.28-1.73,8.55-3.45,12.83-5.18ZM336.64,671.36c0,.2-.02.41-.03.61,2.37.35,4.75.69,7.12,1.04.03-.24.06-.48.09-.72-2.39-.31-4.79-.62-7.18-.93ZM277.45,666.47c-.06-.23-.12-.46-.18-.69-2.21.42-4.42.83-6.64,1.25,1.17.22,2.33.32,3.47.19,1.13-.13,2.24-.49,3.35-.75ZM317.96,669.89c.01-.29.02-.58.03-.88-1.39-.21-2.78-.42-4.17-.63-.04.29-.09.58-.13.88,1.42.21,2.85.42,4.27.63ZM327.83,670.57c.02-.15.05-.3.07-.44h-3.78c0,.15,0,.3,0,.44h3.71Z"/>
      <path class="cls-1" d="M106.68,822.55c.1.1.2.21.3.31,1.58,4.21,5.04,5.54,9.1,5.96.48.5.96,1.01,1.44,1.51.99,1.07,1.85,2.43,3.67,1.63l-.16-.09c.06.24.03.55.18.71,3.33,3.55,8.02,4.65,12.19,6.68.26.13.72-.16,1.09-.26l-.16-.09c.72.63,1.5,1.2,2.15,1.9,1.01,1.07,1.93,2.23,2.89,3.35-5.79-2.93-11.75-5.56-17.32-8.85-7.15-4.22-14.06-8.87-20.93-13.54-2.66-1.81-4.93-4.19-7.38-6.31l-.11.08c2.13.78,4.26,1.55,6.39,2.33l-.11-.09c1.22,3.04,3.12,5.13,6.75,4.78Z"/>
      <path class="cls-1" d="M150.76,847.49c2,2.69,5.2,3.37,7.99,4.72,3.57,1.72,7.19,3.34,10.76,5.05.26.13.37.59.8,1.33-1.08-.32-1.81-.44-2.45-.75-8.63-4.12-17.25-8.26-25.86-12.43-.66-.32-1.15-.96-1.72-1.46,2,.75,3.98,1.53,5.99,2.23,1.53.54,3.09.97,4.64,1.46l-.16-.15Z"/>
      <path class="cls-1" d="M150.92,847.64c-1.55-.48-3.11-.92-4.64-1.46-2.01-.7-3.99-1.49-5.99-2.23-.3.07-.6.14-.9.21-.96-1.12-1.88-2.27-2.89-3.35-.65-.69-1.43-1.27-2.15-1.9,1.74.8,3.5,1.57,5.23,2.4,2.68,1.29,5.38,2.56,8.01,3.96,1.19.64,2.23,1.57,3.34,2.37Z"/>
      <path class="cls-1" d="M205.83,870.08c-2.98-.69-5.97-1.37-8.95-2.06-1.22-.28-2.43-.57-3.56-1.46,1.47,0,2.95-.09,4.41.02,1.51.12,3.01.38,4.49.69,1.64.34,3.12.97,3.62,2.82h0Z"/>
      <path class="cls-1" d="M226.34,873.26c2.62.23,5.24.47,7.87.7-2.74,1.12-5.37.96-7.87-.7Z"/>
      <path class="cls-1" d="M174.7,860.34c3.29,1.04,6.01,1.9,9.43,2.98-2.88.44-6.42-.75-9.43-2.98Z"/>
      <path class="cls-1" d="M241,873.7h5.37c-2.31,1.44-3.82,1.2-5.37,0Z"/>
      <path class="cls-1" d="M205.83,870.09c2.12-1.31,4.17-.61,6.7.11-2.61,1.83-4.61-.53-6.7-.12,0,0,0,.01,0,.01Z"/>
      <path class="cls-1" d="M214.69,870.97c1.47.28,2.93.55,5.07.95-2.34,1.14-3.66-.15-5.07-.95Z"/>
      <path class="cls-1" d="M93.76,815.46c-.91-.84-3.19-.97-1.57-3.1,0,0-.13-.06-.13-.06.53,1.08,1.06,2.15,1.58,3.23l.11-.08Z"/>
      <path class="cls-1" d="M134.5,839c-.37.1-.83.38-1.09.26-4.17-2.03-8.86-3.13-12.19-6.68-.15-.16-.12-.47-.18-.71,1.75.74,3.57,1.35,5.23,2.26,2.8,1.53,5.5,3.24,8.24,4.87Z"/>
      <path class="cls-1" d="M201.7,691.5c-4.28,1.73-8.55,3.45-12.83,5.18-.11-.29-.23-.58-.34-.87,3.87-2.76,8.4-3.86,13.17-4.31Z"/>
      <path class="cls-1" d="M116.07,828.82c-4.06-.42-7.52-1.75-9.1-5.96,3.03,1.99,6.06,3.97,9.1,5.96Z"/>
      <path class="cls-1" d="M93.65,815.53c-.53-1.08-1.06-2.15-1.58-3.23,1,.45,2.11.74,2.97,1.38,1.74,1.29,3.34,2.77,5.01,4.18-2.13-.78-4.26-1.55-6.39-2.33Z"/>
      <path class="cls-1" d="M106.68,822.55c-3.63.35-5.53-1.74-6.75-4.78,2.25,1.59,4.5,3.19,6.75,4.78Z"/>
      <path class="cls-1" d="M216.99,685.81q2.01-1.76,5.82-2.03c-.88.35-1.74.74-2.64,1.03-1.08.35-2.18.62-3.28.93l.09.07Z"/>
      <path class="cls-1" d="M212.4,686.8c-.03,1.88-1.58,1.51-3.12,2.07.33-1.33.57-2.28.77-3.09,1.01.45,1.71.77,2.42,1.09,0,0-.08-.08-.08-.08Z"/>
      <path class="cls-1" d="M408.03,804.79c-1.05.56-2.09,1.13-3.68,1.98.78-2.85,2.23-2.41,3.67-1.98,0,0,0,0,0,0Z"/>
      <path class="cls-1" d="M216.9,685.74c-1.49.36-2.99.72-4.49,1.07,0,0,.08.08.07.07,1.49-.37,2.99-.73,4.5-1.07.01.01-.08-.06-.08-.06Z"/>
      <path class="cls-1" d="M121.19,831.96c-1.82.8-2.68-.55-3.67-1.63,1.22.54,2.45,1.09,3.67,1.63Z"/>
      <path class="cls-1" d="M67.53,777.55c1.86-1.31,1.78.58,2.19,1.62-.75-.56-1.49-1.11-2.25-1.68-.01-.01.05.06.05.06Z"/>
      <path class="cls-1" d="M260.11,729.53c1.1-.3,2.2-.61,3.3-.91.06.2.12.39.18.59-1.08.34-2.16.67-3.25,1.01-.08-.23-.16-.46-.23-.69Z"/>
      <path class="cls-1" d="M213.23,742.47c.86-.18,1.72-.35,2.58-.53.04.17.08.35.12.52-.82.23-1.64.46-2.46.7-.08-.23-.16-.46-.24-.69Z"/>
    </g>
  </g>
</svg>