<?xml version="1.0" encoding="UTF-8"?>
<svg id="Capa_2" xmlns="http://www.w3.org/2000/svg" viewBox="0 0 176.19 134.01">
  <defs>
    <style>
      .cls-1 {
        fill: #30c;
      }
    </style>
  </defs>
  <g id="Capa_1-2" data-name="Capa_1">
    <path class="cls-1" d="M98.79,118.76c-1.54.93-2.87,1.72-4.32,2.6.15-.43.27-.82.44-1.31-.81.1-1.59.19-2.86.34.8-1.6,1.42-2.81,2.19-4.35-1.33.95-2.09.15-2.76-.55-.96.3-1.79.57-2.93.93.22-.82.32-1.49.58-2.1.41-.97,1.23-1.74.36-3.02-.31-.46.28-1.64.63-2.42.29-.64.82-1.17,1.31-1.83-.48-.39-.94-.77-1.57-1.27,1.41-.94,1.45-2.37,1.91-3.67.79-2.23,1.97-4.36,3.2-6.41,1.75-2.91,3.74-5.68,5.52-8.58,1.37-2.23,2.55-4.57,3.84-6.84.35-.62.69-1.35,1.24-1.73.54-.38.53-.66.61-1.25.13-.9.27-2.11,1.77-2.13.26,0,.71-.81.72-1.25,0-1.34,1.13-4.02,2.33-4.35,1.27-.35,1.84-1.51,1.82-2.18-.04-1.35.76-2.01,1.37-2.89,1.44-2.07,2.69-4.31,4.39-6.13,1.37-1.47,2.49-3.14,3.78-4.65,1.16-1.37,1.46-3.47,3.18-4.55.89-4.36,4.53-6.76,7.12-9.88,6.67-8.05,14.59-14.93,21.5-22.77,3.31-3.76,6.81-7.37,10.39-10.89,2.03-1.99,4.37-3.66,6.78-5.64.33,1.31,1.3,1.45,2.31,1.39.14,0,.25-.47.38-.74,2.29.57,2.59,1.05,1.72,3.32-.7,1.81-1.49,3.6-2.33,5.35-.3.61-.89,1.07-1.35,1.6-.24.28-.69.54-.7.83-.05,1.49-1.1,2.42-1.81,3.56-1.56,2.48-2.96,5.07-4.56,7.52-2.51,3.85-4.95,7.76-7.81,11.35-.94,1.18-1.59,2.34-2.27,3.62-1.25,2.35-2.51,4.9-4.42,6.64-1.6,1.45-2,3.13-2.86,4.81-1.31,2.56-2.37,5.27-4.19,7.59-.98,1.24-1.35,2.95-1.98,4.46-.34.8-.53,1.69-.97,2.43-3.14,5.25-6.01,10.65-9.15,15.9-.93,1.56-1.54,3.32-2.32,4.98-1.08,2.29-2.21,4.55-3.25,6.86-1.01,2.23-1.92,4.51-2.93,6.9-.33-.18-.58-.31-.99-.52-.43.92-1.49,1.64-.67,3,.16.27-.1.88-.3,1.26-1.18,2.26-2.4,4.49-3.62,6.73-1.17,2.15-2.35,4.3-3.54,6.45-.14.26-.37.46-.9,1.12.13-1.05.19-1.57.26-2.16-2.25,2.48-4.4,4.84-6.66,7.32-.66-.7-1.13-1.19-1.68-1.76-.59.55-1.09,1.02-1.78,1.66-.87-1.87-3.75.28-4.16-2.69Z"/>
    <path class="cls-1" d="M17.64,129.5c-.6-1.46-1.92-2.06-3.19-2.73-1.11-.58-2.24-1.12-3.35-1.7-.49-.26-.93-.68-1.45-.82-3.54-.99-5.14-3.83-6.75-6.76-1.61-2.92-2.3-6.05-2.67-9.33-.56-4.97-.13-9.8,1.35-14.59,1.15-3.72,3.49-6.56,6.27-9.1,1.74-1.6,3.51-3.18,5.39-4.61,1.88-1.43,3.9-2.67,6.3-3.13.46-.09,1.05-.16,1.33-.47,2.13-2.35,5.08-2.13,7.79-2.38,2.35-.22,4.76-.17,7.11.07,2.66.27,5.04,1.56,7.19,3.04,3.9,2.68,6.36,6.64,8.7,10.65.12.2.28.46.24.66-.42,2.52,1.09,4.78,1.02,7.19-.09,3.03,1.1,5.97.32,9.04-.76,3-1.24,6.07-1.88,9.1-.55,2.6-1.86,4.86-3.16,7.16-1.52,2.69-3.47,4.9-5.88,6.82-1.22.97-2.09,2.37-3.12,3.57-.12-.17-.24-.34-.37-.51-.6-.11-1.34-.5-1.78-.29-2.86,1.4-5.8,2.47-8.87,3.35-2.7.78-4.86-.21-7.03-1.31-1.23-.62-2.21-1.74-3.31-2.63.57.05,1.14.09,1.71.14-.67,0-1.23-1.52-1.92-.43Z"/>
  </g>
</svg>