<?xml version="1.0" encoding="UTF-8"?>
<svg id="Capa_2" xmlns="http://www.w3.org/2000/svg" viewBox="0 0 88.68 97.7">
  <defs>
    <style>
      .cls-1 {
        fill: #30c;
      }
    </style>
  </defs>
  <g id="Capa_1-2" data-name="Capa_1">
    <path class="cls-1" d="M80.93,21.11c.86,1.43,1.81,2.81,2.54,4.3.64,1.32,1.12,2.74,1.52,4.16,1.24,4.44,2.74,8.85,3.49,13.38.47,2.84.01,5.9-.41,8.8-1.1,7.59-3.64,14.72-7.66,21.24-1.14,1.85-2.84,3.37-4.31,5.02-3.18,3.58-6.52,6.99-10.37,9.87-1.54,1.15-3.08,2.19-5,2.71-1.41.38-2.65,1.4-4.06,1.83-3.84,1.2-7.71,2.33-11.62,3.31-3.2.8-6.45,1.69-9.72,1.91-5.69.39-10.95-.9-15.56-4.7-2.8-2.31-4.64-5.41-7.36-7.72-.26-.22-.25-.74-.46-1.07-.59-.93-1.03-2.09-1.87-2.68-2.11-1.48-2.91-3.69-3.87-5.86-.38-.85-.64-1.87-1.28-2.47-2.41-2.28-3.38-5.28-3.91-8.31-1.21-6.87-1.48-13.82-.05-20.69.54-2.61,1.72-5.14,2.86-7.58,2.57-5.49,5.16-10.99,8.65-15.96,1.69-2.4,3.57-4.68,5.57-6.83,2.6-2.8,5.37-5.44,8.1-8.12,1.27-1.26,2.77-2.06,4.56-2.46,2.16-.48,4.31-1.06,6.37-1.84,2.67-1.02,5.44-1.01,8.2-1.29.08,0,.16.03.24.02,4.57-.39,8.54,1.27,12.41,3.45.93.52,2.09.63,3.15.92,1.68.46,3.49.64,5.02,1.41,5.22,2.61,9.54,6.39,13.05,11.02.92,1.21,1.25,2.86,1.85,4.31-.32-.18-.63-.35-.95-.53-.1.09-.19.17-.29.26.32.53.64,1.05.96,1.58.11-.04.22-.08.32-.11-.03-.42-.07-.84-.1-1.26ZM74.06,15.22q-.12-1.23-1.57-2.11c.73.96,1.16,1.53,1.59,2.1.59.61,1.18,1.22,1.77,1.83.12-.13.24-.27.35-.4-.42-.85-.82-1.73-2.14-1.41ZM15.13,58.83c1.07,1.03.54,2.28.5,3.42-.1,3.37,0,6.65,2.26,9.47,1.35,1.67,2.52,3.5,3.92,5.13.93,1.07,2.06,2,3.22,2.83,1.08.77,2.31,1.31,3.47,1.98.48.28.89.78,1.4.91,3.76.94,7.49,2.26,11.44.86.62-.22,1.37-.09,2.06-.12-.11.82.49.72.89.57,1.08-.4,2.23-.75,3.17-1.39,1.51-1.03,2.87-2.29,4.3-3.44,3.78-3.05,6.14-7.05,7.85-11.52,2.17-5.65,3.13-11.55,3.53-17.54.17-2.49.17-5.17-.59-7.49-.77-2.35-2.34-4.55-3.97-6.47-1.99-2.34-4.41-4.33-6.66-6.45-.22-.2-.53-.36-.82-.42-2.24-.45-4.51-.74-6.71-1.31-2.72-.71-5.21-.08-7.63.98-2.77,1.22-5.44,2.63-8.19,3.91-1.65.77-2.91,1.96-3.93,3.42-1.87,2.66-3.73,5.34-5.5,8.06-.55.85-.88,1.86-1.2,2.84-.38,1.13-.65,2.31-.98,3.46-.28.96-.7,1.71-.53,2.95.24,1.75,0,3.83-1.31,5.39ZM3.07,59.32c-.05.78-1.37,1.88.64,2.25-.23-.81-.44-1.53-.64-2.25Z"/>
  </g>
</svg>